<?xml version="1.0" encoding="utf-8"?>
<!-- Generator: Adobe Illustrator 25.3.1, SVG Export Plug-In . SVG Version: 6.00 Build 0)  -->
<svg version="1.1" id="Layer_1" xmlns="http://www.w3.org/2000/svg" xmlns:xlink="http://www.w3.org/1999/xlink" x="0px" y="0px"
	 viewBox="0 0 1646.2 469.8" style="enable-background:new 0 0 1646.2 469.8;" xml:space="preserve">
<style type="text/css">
	.st0{fill:#1B75BB;}
</style>
<g>
	<path d="M748.5,262.2h92.6v-32.6h-92.6v-40.9h100.9v-35.3H706.5v191h144.9v-35.3h-103L748.5,262.2L748.5,262.2z M864.7,188.7H922
		v155.7h41.9V188.7h57.3v-35.3H864.7V188.7L864.7,188.7z M630.1,281.3h-0.6l-79.7-128.1h-41.5v191h39.2V216.3h0.7l79.5,127.9h41.9
		v-191h-39.2v128.1H630.1z M1302.2,148.8c-59.2,0-93.8,44.2-93.8,100.9c0,55,34.7,99.2,93.8,99.2c59.2,0,93.8-44,93.8-99.2
		C1396.1,192.8,1361.4,148.8,1302.2,148.8z M1302.2,313.4c-37.8,0-51.9-32.2-51.9-63.9c0-33.4,14.1-65.6,51.9-65.6
		c37.8,0,51.9,32.2,51.9,65.6C1354.1,281.3,1340,313.4,1302.2,313.4z M1135.1,231.9c-47.9-12.2-56.9-14.1-56.9-28.9
		c0-16,15.6-21.6,28.9-21.6c20.1,0,36.3,5.8,37.8,28.9h40.7c0-44.2-36.5-61.4-76.4-61.4c-34.5,0-71.4,18.7-71.4,57.7
		c0,35.9,28.6,46.7,56.9,54.4c28,7.5,56.7,11,56.7,31.5c0,19.5-22.4,23.9-37.2,23.9c-22.4,0-42.3-10-42.3-35.3h-40.7
		c-0.6,47.1,39,67.9,81.4,67.9c51.9,0,79.5-26.2,79.5-61.2C1191.8,244.1,1149.1,235.4,1135.1,231.9z M1466.6,153.2h-41.9v191h134.9
		v-35.3h-93V153.2z"/>
</g>
<g>
	<path class="st0" d="M360.1,256C360.1,256,360.1,256,360.1,256L58.8,81.9h-0.1v103.8c0,24.2,13.3,45.2,32.8,56.3l0,0l301.3,174.1
		h0.1V312.3C392.9,288.2,379.7,267.2,360.1,256z"/>
	<g>
		<path class="st0" d="M91.1,312C91.1,312,91.1,312,91.1,312c-17.6-10.1-30-28.1-32.3-49.2V416L165,354.6L91.1,312z"/>
	</g>
	<g>
		<path class="st0" d="M360.6,186C360.6,186,360.6,186,360.6,186c17.6,10.1,30,28.1,32.3,49.2V82l-106.3,61.3L360.6,186z"/>
	</g>
</g>
</svg>
