<?xml version="1.0" encoding="utf-8"?>
<!-- Generator: Adobe Illustrator 25.3.1, SVG Export Plug-In . SVG Version: 6.00 Build 0)  -->
<svg version="1.1" id="Layer_1" xmlns="http://www.w3.org/2000/svg" xmlns:xlink="http://www.w3.org/1999/xlink" x="0px" y="0px"
	 viewBox="0 0 1254.07 429.13" style="enable-background:new 0 0 1254.07 429.13;" xml:space="preserve">
<style type="text/css">
	.st0{fill:#00B6EF;}
	.st1{fill:#292A85;}
	.st2{fill:#FCFCFC;}
	.st3{fill:#FCFBFC;}
</style>
<g>
	<path class="st0" d="M245.61,211.18c26.1,22.79,48.16,48.77,62.83,80.45c6.56,14.16,10.97,28.89,10.41,44.76
		c-0.83,23.26-17.18,40.21-40.45,42.25c-24.16,2.12-46.65-4.06-68.16-13.97c-49.24-22.69-89.42-56.2-118.72-102.11
		c-10.46-16.39-18.37-33.98-20.99-53.46c-2.6-19.36,0.98-36.77,18.54-48.29c11.94-7.84,25.6-8.86,39.45-7.58
		c19.8,1.83,38.23,8.44,56.21,16.53c2.05,1.83,0.98,4.05,0.62,6.07c-6.32,35.39-12.95,70.73-19.2,106.14
		c-0.43,2.46-0.79,4.93-1.27,7.38c-0.5,2.55,0.44,3.77,3.1,3.76c16.98-0.05,33.97,0.3,50.94-0.19c6.11-0.18,10.15-3.72,12.06-9.58
		c2.28-7,3.23-14.29,4.35-21.51c2.4-15.46,5.4-30.81,8.01-46.23C243.61,213.99,243.1,211.74,245.61,211.18z"/>
	<path class="st1" d="M1081.16,294.24c0.84-5.28,1.66-10.5,2.59-16.37c-4.24,4.11-7.83,8.01-12.24,11.02
		c-26.9,18.33-64.36,9.21-82.33-20.09c-9.89-16.11-12.57-33.8-11.28-52.29c1.76-25.26,9.48-48.18,27.12-67.04
		c19.77-21.13,52.01-29.3,77.81-19.86c8.32,3.05,15.14,8.12,21.03,15.68c1.01-4.82,2.13-8.83,2.61-12.91
		c0.37-3.12,1.84-3.63,4.58-3.61c15.33,0.11,30.66,0.22,45.98-0.06c4.17-0.08,4.49,1.21,3.85,4.78
		c-4.89,27.15-9.59,54.34-14.38,81.5c-4.48,25.36-9.02,50.71-13.46,76.08c-0.37,2.12-0.49,3.75-3.39,3.73
		c-15.66-0.13-31.32-0.08-46.98-0.12C1082.19,294.7,1081.73,294.42,1081.16,294.24z"/>
	<path class="st1" d="M245.61,211.18c-3.85,22.24-7.7,44.48-11.55,66.71c-2.15,12.44-7.35,16.85-19.9,16.86
		c-15.65,0.01-31.3-0.16-46.95,0.11c-4.2,0.07-4.82-1.15-4.12-4.96c7.31-39.53,14.48-79.09,21.67-118.64
		c0.09-0.48-0.02-0.99-0.03-1.49c1.99-10.44,3.9-20.9,6.03-31.32c0.72-3.54-1.2-3.32-3.59-3.32c-19.32,0.04-38.65-0.12-57.97,0.09
		c-4.32,0.05-5.74-0.44-4.65-5.34c2.53-11.34,4.36-22.84,6.41-34.29c1.93-10.77,8.23-16.67,19.07-16.69
		c59.47-0.12,118.95-0.03,178.42-0.12c3.47-0.01,3.67,1.15,3.09,4.12c-2.35,11.89-4.46,23.84-6.61,35.77
		c-1.93,10.69-8.34,16.31-19.24,16.42c-14.33,0.14-28.65,0.18-42.98,0.05c-3.28-0.03-4.49,0.84-5.04,4.25
		C253.8,163.35,249.66,187.26,245.61,211.18z"/>
	<path class="st1" d="M417.32,226.79c-16.32,0-32.65,0.14-48.97-0.1c-4.07-0.06-4.76,1.24-4.12,4.87
		c3.24,18.51,24.19,26.37,40.47,15.08c1.23-0.85,2.38-1.83,3.47-2.85c6.12-5.74,6.1-5.73,13.49-1.24
		c10.38,6.3,20.71,12.68,31.21,18.76c2.96,1.71,2.99,2.93,1.21,5.6c-8.85,13.23-20.8,22.43-35.9,27.19
		c-21.05,6.64-42.36,6.85-63.33-0.09c-33.49-11.08-53.9-45.05-49.54-80.91c2.31-19.01,7.94-36.72,19.4-52.2
		c19.83-26.8,47.34-37.05,79.74-35.78c18.53,0.72,35.15,6.72,48.71,19.93c12.75,12.43,19.2,27.77,20.57,45.27
		c0.85,10.8,0.11,21.6-1.75,32.32c-0.57,3.27-1.86,4.27-5.19,4.23C450.3,226.69,433.81,226.79,417.32,226.79z"/>
	<path class="st1" d="M642.46,298.81c-20.25-0.27-39.32-4.27-55.38-17.67c-8.8-7.34-13.79-16.9-15.96-28.03
		c-0.48-2.45-0.53-4.12,2.93-4.81c15.15-3.02,30.23-6.4,45.3-9.8c2.56-0.58,3.63-0.24,4.62,2.48c4.2,11.47,16.11,17.33,27.88,14.07
		c5.83-1.62,8.8-4.83,9.07-9.83c0.28-5.21-1.95-8.72-8.1-10.41c-9.92-2.73-20.03-4.8-30.05-7.16c-9.98-2.35-19.54-5.82-27.3-12.73
		c-14.84-13.23-15.34-29.95-9.93-47.27c5.34-17.09,17.51-28.54,33.76-35.29c23.21-9.65,46.99-10.35,70.62-1.71
		c18.29,6.69,29.98,19.75,34.42,39c0.6,2.6,0.21,3.48-2.47,4.02c-15.47,3.13-30.92,6.34-46.32,9.79c-3.37,0.75-3.87-1.26-4.92-3.31
		c-5.13-9.96-13.63-13.94-24.47-11.37c-1.89,0.45-3.81,1.29-5.41,2.4c-3.45,2.38-4.76,5.84-4.18,10.01
		c0.54,3.82,3.11,5.75,6.44,6.87c9.16,3.09,18.74,4.45,28.14,6.55c8.46,1.89,16.83,3.95,24.4,8.39
		c15.42,9.04,21.46,22.87,20.71,40.26c-1.27,29.15-21.56,47.26-49.98,53.32C658.45,298.23,650.51,298.98,642.46,298.81z"/>
	<path class="st1" d="M828.62,244.41c-2.75,15.83-5.4,31.21-8.12,46.58c-0.3,1.69-0.39,3.48-3.02,3.81
		c-21.12,2.7-41.31,0.66-59.04-12.3c-16.85-12.33-23.53-29.7-22.76-50.04c0.74-19.34,5.6-38.12,8.64-57.15
		c4.28-26.76,9.16-53.42,13.48-80.17c0.83-5.12,2.41-6.95,7.97-6.78c16.31,0.48,32.65,0.23,48.98,0.12
		c2.93-0.02,4.02,0.34,3.36,3.77c-1.97,10.28-3.28,20.69-5.3,30.96c-0.89,4.53-0.08,5.96,4.79,5.74c8.98-0.41,17.99-0.03,26.99-0.16
		c3.01-0.04,4.36,0.18,3.6,3.99c-2.69,13.53-5.04,27.13-7.24,40.74c-0.48,2.99-1.89,3.33-4.34,3.31c-9.5-0.08-19,0.11-28.49-0.1
		c-3.26-0.07-4.68,0.76-5.18,4.17c-1.77,12-3.83,23.96-5.85,35.92c-2.91,17.25,5.88,27.79,23.42,27.93
		C823.01,244.78,825.48,244.55,828.62,244.41z"/>
	<path class="st1" d="M510.6,294.76c-8.5,0-17-0.15-25.49,0.07c-3.44,0.09-4.63-0.55-3.95-4.34c6.44-35.82,12.71-71.68,19.05-107.52
		c5.88-33.22,11.87-66.41,17.59-99.66c0.62-3.59,1.79-4.59,5.34-4.55c17.16,0.18,34.32,0.22,51.48-0.01c4.2-0.06,4.4,1.25,3.75,4.86
		c-8.92,50.06-17.69,100.16-26.49,150.24c-3.37,19.15-6.78,38.28-10.1,57.44c-0.44,2.54-1.39,3.6-4.19,3.54
		C528.59,294.64,519.59,294.76,510.6,294.76z"/>
	<path class="st1" d="M925.78,146.33c13.62-16.6,30.46-21.89,50.41-19.02c3.33,0.48,4.17,1.63,3.53,4.78
		c-3.36,16.44-6.67,32.89-9.85,49.36c-0.53,2.72-1.51,3.44-4.3,3.08c-22.52-2.94-39.14,9.89-42.85,32.38
		c-4.11,24.92-8.64,49.77-12.89,74.66c-0.43,2.51-1.5,3.25-3.95,3.24c-17.99-0.08-35.99-0.16-53.98,0.03
		c-4.64,0.05-3.13-2.77-2.77-4.87c2.96-17.2,6.03-34.37,9.08-51.55c6.2-35.02,12.48-70.02,18.51-105.06
		c0.61-3.57,1.72-4.66,5.3-4.61c13.99,0.2,27.99,0.2,41.98-0.01c3.63-0.05,4.17,1.18,3.57,4.35
		C926.8,137.15,926.44,141.3,925.78,146.33z"/>
	<path class="st2" d="M1064.17,178.51c13.81-0.05,22.55,5.91,26.12,16.59c4.86,14.54,2.6,28.39-6.64,40.53
		c-6.6,8.67-15.9,12.71-26.86,10.38c-11.15-2.37-16.26-10.74-18.59-21.12c-1.06-4.73-0.94-9.59-0.32-14.38
		c1.17-9.08,4.02-17.47,10.65-24.15C1053.7,181.17,1059.97,178.56,1064.17,178.51z"/>
	<path class="st3" d="M392.17,194.49c-6.99,0-13.98-0.07-20.96,0.04c-2.36,0.03-3.27-0.24-2.34-2.98
		c5.05-14.95,20.48-22.86,35.16-17.88c7.68,2.61,12.78,9.41,13.1,17.11c0.11,2.7-0.48,3.87-3.49,3.78
		C406.49,194.36,399.33,194.49,392.17,194.49z"/>
</g>
</svg>
