<?xml version="1.0" encoding="utf-8"?>
<!-- Generator: Adobe Illustrator 25.3.1, SVG Export Plug-In . SVG Version: 6.00 Build 0)  -->
<svg version="1.1" id="Layer_1" xmlns="http://www.w3.org/2000/svg" xmlns:xlink="http://www.w3.org/1999/xlink" x="0px" y="0px"
	 viewBox="0 0 1298.7 383.22" style="enable-background:new 0 0 1298.7 383.22;" xml:space="preserve">
<style type="text/css">
	.st0{fill:#FFCC00;}
</style>
<g>
	<rect x="90.53" y="98.48" class="st0" width="102.6" height="37.26"/>
	
		<rect x="59.58" y="183.3" transform="matrix(-1.836970e-16 1 -1 -1.836970e-16 343.7595 60.1032)" class="st0" width="164.5" height="37.26"/>
	
		<rect x="132.08" y="172.7" transform="matrix(-1.836970e-16 1 -1 -1.836970e-16 416.265 -33.6093)" class="st0" width="185.71" height="37.26"/>
	
		<rect x="209.46" y="172.7" transform="matrix(-1.836970e-16 1 -1 -1.836970e-16 493.6423 -110.9867)" class="st0" width="185.71" height="37.26"/>
	
		<rect x="267.34" y="172.7" transform="matrix(-1.836970e-16 1 -1 -1.836970e-16 551.5166 -168.861)" class="st0" width="185.71" height="37.26"/>
	
		<rect x="424.18" y="172.7" transform="matrix(-1.836970e-16 1 -1 -1.836970e-16 708.3644 -325.7088)" class="st0" width="185.71" height="37.26"/>
	
		<rect x="729.49" y="172.7" transform="matrix(-1.836970e-16 1 -1 -1.836970e-16 1013.6724 -631.0167)" class="st0" width="185.71" height="37.26"/>
	
		<rect x="952.4" y="173.94" transform="matrix(-1.836970e-16 1 -1 -1.836970e-16 1236.5853 -853.9296)" class="st0" width="185.71" height="34.78"/>
	<rect x="211.92" y="164.68" class="st0" width="102.6" height="37.26"/>
	<rect x="803.72" y="98.48" class="st0" width="82.89" height="37.26"/>
	<rect x="803.72" y="246.92" class="st0" width="82.89" height="37.26"/>
	<rect x="803.72" y="168.67" class="st0" width="82.89" height="37.26"/>
	<polygon class="st0" points="535.66,164.68 572.44,98.48 611.53,98.48 535.66,218.29 	"/>
	<polygon class="st0" points="571.7,284.18 541.82,199.51 565.27,164.49 611.53,284.18 	"/>
	<polygon class="st0" points="406.17,154.43 406.17,284.18 464.37,284.18 	"/>
	<polyline class="st0" points="413.55,98.48 471.74,228.22 471.74,98.48 	"/>
	<polygon class="st0" points="757.46,99.04 756.23,99.04 736.46,99.04 708.35,222.65 680.24,99.04 659.25,99.04 624.47,99.04 
		624.47,284.74 659.25,284.74 659.25,151.24 691.64,284.74 708.35,284.74 725.07,284.74 756.23,156.32 756.23,284.74 791.01,284.74 
		791.01,99.04 	"/>
	<polyline class="st0" points="1141.79,138.14 1126.46,205.93 1121.74,232 1112.69,284.18 1075.31,284.18 1119.9,98.48 
		1163.88,98.48 1208.17,284.18 1170.9,284.18 1161.85,232 1115.84,232 1115.84,205.93 1157.13,205.93 	"/>
	<path class="st0" d="M938.27,98.48h-37.26v185.71h37.26c77.05,0,76.93-92.85,76.93-92.85S1015.32,99.04,938.27,98.48z
		 M938.27,251.15V131.51c0,0,43.32-0.14,43.32,59.82C981.59,251.29,938.27,251.15,938.27,251.15z"/>
</g>
</svg>
