<?xml version="1.0" encoding="utf-8"?>
<!-- Generator: Adobe Illustrator 24.2.0, SVG Export Plug-In . SVG Version: 6.00 Build 0)  -->
<svg version="1.1" id="Layer_1" xmlns="http://www.w3.org/2000/svg" xmlns:xlink="http://www.w3.org/1999/xlink" x="0px" y="0px"
	 viewBox="0 0 6070.3 1079.7" style="enable-background:new 0 0 6070.3 1079.7;" xml:space="preserve">
<style type="text/css">
	.st0{fill:#01004B;}
	.st1{fill:url(#SVGID_1_);}
	.st2{fill:url(#SVGID_2_);}
	.st3{fill:url(#SVGID_3_);}
	.st4{opacity:0.17;}
	.st5{fill:#FFFFFF;}
</style>
<g>
	<path class="st0" d="M1518.3,615.5L1420,393.4l-98.3,222.1H1518.3L1518.3,615.5z M1284.1,700.5L1230,823.1h-97.3l238.7-540.2h97.2
		l237.6,540.2H1609l-54.1-122.6H1284.1L1284.1,700.5z"/>
	<path class="st0" d="M1855.4,823.2h-86.2v-411h86.2v74c12.5-25,31.3-44.6,56.3-58.6c25-14.7,51.9-22.1,80.7-22.1
		c65.6,0,109.8,26.9,132.6,80.6c40.5-53.8,91.3-80.6,152.5-80.6c47.1,0,84.7,14.4,112.7,43.1s42,69.6,42,122.6v251.9H2346V597.8
		c0-75.9-31.7-113.8-95-113.8c-30.9,0-57.1,9.9-78.4,29.8c-20.6,19.1-31.3,46-32,80.6v228.7h-87.3V597.8c0-39-7-67.8-21-86.2
		c-14-18.4-35.7-27.6-65.2-27.6c-31.7,0-58.2,10.3-79.6,30.9c-21.4,19.9-32,48.2-32,85.1v223.2L1855.4,823.2L1855.4,823.2z"/>
	<path class="st0" d="M2760.8,752.5c35.4,0,65.2-12.5,89.5-37.6c25-25.8,37.6-58.2,37.6-97.2s-12.5-71.4-37.6-97.2
		c-24.3-25.8-53.8-38.7-88.4-38.7c-34.6,0-63.7,13.3-87.3,39.8c-23.6,25.8-35.4,57.8-35.4,96.1c0,39,11.8,71.4,35.4,97.2
		C2698.2,739.9,2726.9,752.5,2760.8,752.5z M2975.2,615.5c0,61.9-19.2,113.1-57.5,153.6s-84,60.8-137,60.8
		c-52.3,0-99.1-22.8-140.3-68.5v61.9h-86.2V249.8h86.2V484c34.6-52.3,79.2-78.4,133.7-78.4c56.7,0,104.2,19.5,142.5,58.6
		C2955.7,503.2,2975.2,553.6,2975.2,615.5z"/>
	<path class="st0" d="M3369.5,586.8c0-33.1-10.7-59.3-32-78.4c-20.6-19.1-47.5-28.7-80.7-28.7s-62.2,9.9-87.3,29.8
		c-24.3,19.9-36.5,45.7-36.5,77.3H3369.5L3369.5,586.8z M3455.6,655.2H3133c2.2,29.5,15.8,53.4,40.9,71.8
		c25,18.4,54.1,27.6,87.3,27.6c52.3,0,91.3-16.2,117.1-48.6l49.7,54.1c-44.2,46.4-102,69.6-173.5,69.6
		c-58.9,0-108.3-19.5-148.1-58.6c-39.8-39-59.7-90.6-59.7-154.7c0-62.6,20.3-113.4,60.8-152.5s89.5-58.6,147-58.6
		s105.3,17.3,143.6,51.9s57.5,80.6,57.5,138.1V655.2z"/>
	<path class="st0" d="M3637.8,646.4v176.8h-86.1v-411h86.2V494c14-25.8,32.8-46.8,56.4-63c24.3-16.2,49.7-24.7,76.2-25.4l1.1,87.3
		h-4.4c-42,0-74,13.6-96.1,40.9C3649,561.1,3637.8,598.5,3637.8,646.4z"/>
	<path class="st0" d="M3944.5,823.2h-86.2v-411h86.2v74c12.5-25,31.3-44.6,56.3-58.6c25-14.7,51.9-22.1,80.7-22.1
		c65.6,0,109.8,26.9,132.6,80.6c40.5-53.8,91.3-80.6,152.5-80.6c47.1,0,84.7,14.4,112.7,43.1s42,69.6,42,122.6v251.9h-86.2V597.8
		c0-75.9-31.7-113.8-95-113.8c-30.9,0-57.1,9.9-78.4,29.8c-20.6,19.1-31.3,46-32,80.6v228.7h-87.3V597.8c0-39-7-67.8-21-86.2
		c-14-18.4-35.7-27.6-65.2-27.6c-31.7,0-58.2,10.3-79.6,30.9c-21.4,19.9-32,48.2-32,85.1v223.2L3944.5,823.2L3944.5,823.2z"/>
	<path class="st0" d="M4832.2,829.8c-61.9,0-113.4-20.3-154.7-60.8c-41.2-41.2-61.9-91.7-61.9-151.4s20.6-109.7,61.9-150.2
		c41.2-41.2,92.8-61.9,154.7-61.9s113.4,20.6,154.7,61.9c41.2,40.5,61.9,90.6,61.9,150.2c0,57.4-20.6,107.5-61.9,150.2
		C4945.7,809.2,4894.1,829.8,4832.2,829.8z M4832.2,752.5c37.6,0,68.5-12.5,92.8-37.6c25-25,37.6-57.4,37.6-97.2
		s-12.5-72.2-37.6-97.2c-24.3-25-55.2-37.6-92.8-37.6c-37.6,0-68.5,12.5-92.8,37.6c-24.3,25-36.5,57.4-36.5,97.2
		s12.2,71.8,36.5,96.1C4763.7,739.6,4794.7,752.5,4832.2,752.5z"/>
	<polygon class="st0" points="5255,823.2 5090.4,412.2 5179.9,412.2 5304.7,722.6 5430.7,412.2 5520.2,412.2 5354.4,823.2 	"/>
	<path class="st0" d="M5884.5,586.8c0-33.1-10.7-59.3-32-78.4c-20.6-19.1-47.5-28.7-80.7-28.7s-62.2,9.9-87.3,29.8
		c-24.3,19.9-36.5,45.7-36.5,77.3H5884.5L5884.5,586.8z M5970.7,655.2h-322.6c2.2,29.5,15.8,53.4,40.9,71.8
		c25,18.4,54.1,27.6,87.3,27.6c52.3,0,91.3-16.2,117.1-48.6l49.7,54.1c-44.2,46.4-102,69.6-173.5,69.6
		c-58.9,0-108.3-19.5-148.1-58.6c-39.8-39-59.7-90.6-59.7-154.7c0-62.6,20.3-113.4,60.8-152.5c40.5-39,89.5-58.6,147-58.6
		s105.3,17.3,143.6,51.9c38.3,34.6,57.5,80.6,57.5,138.1L5970.7,655.2L5970.7,655.2z"/>
</g>
<g>
	
		<linearGradient id="SVGID_1_" gradientUnits="userSpaceOnUse" x1="271.1342" y1="991.2496" x2="271.1342" y2="535.2294" gradientTransform="matrix(1 0 0 -1 0 1077.8898)">
		<stop  offset="0" style="stop-color:#EDD86B"/>
		<stop  offset="0.101" style="stop-color:#ECCF60"/>
		<stop  offset="0.4966" style="stop-color:#E9AD37"/>
		<stop  offset="0.81" style="stop-color:#E8991E"/>
		<stop  offset="1" style="stop-color:#E79115"/>
	</linearGradient>
	<path class="st1" d="M438.2,310.1c-2.9,15.5-9.4,41.9-32.8,83.5c-32.5,58-77.6,103.1-166.3,190.9c-21.3,21.1-40.5,39.5-65.9,69.5
		c-22.3,26.2-39.5,49.8-51.7,67.3c3.3-8.1,5.8-13.5,5.8-13.5c8.9-19.4,13.8-26.1,23.9-46.5c0.1-0.2,0.2-0.4,0.3-0.5
		c0,0,0-0.1,0.1-0.1c3.2-6.4,8.6-17.5,13.9-29.7c0-0.1,0-0.1,0.1-0.2c6.4-17,12.5-37.9,15.7-62.2c0.8-5.6,1.3-11.1,1.7-16.4
		c0.1-0.8,0.1-1.6,0.2-2.3c0.2-2.5,0.3-5,0.4-7.4c0-0.8,0.1-1.6,0.1-2.4V540c-0.3-11.5-1.5-21.2-2.3-28.5
		c-2.9-23.7-8.8-44.6-15.8-62.2c0-0.1,0-0.1-0.1-0.2c-4.4-11.2-9.2-21.2-13.9-29.7c-0.1-0.2-0.2-0.5-0.3-0.7
		c-10.1-20.4-15-27.1-23.9-46.5c0,0-11.1-24.2-18.2-47.3C81.1,233.1,124,165.6,124,165.6c29.1-45.7,80.7-76.4,136.4-78.8
		c43-1.9,75.9,13.6,90.9,22c19.7,12.1,38.9,24,57.6,35.5c0.6,1.1,1.1,2.3,1.7,3.4c6.8,14.2,15.9,33.1,21.6,50.2
		C449.2,248.6,440.9,295.6,438.2,310.1z"/>
	
		<linearGradient id="SVGID_2_" gradientUnits="userSpaceOnUse" x1="421.0443" y1="933.7897" x2="421.0443" y2="289.0898" gradientTransform="matrix(1 0 0 -1 0 1077.8898)">
		<stop  offset="0" style="stop-color:#EDD86B"/>
		<stop  offset="0.101" style="stop-color:#ECCF60"/>
		<stop  offset="0.4966" style="stop-color:#E9AD37"/>
		<stop  offset="0.81" style="stop-color:#E8991E"/>
		<stop  offset="1" style="stop-color:#E79115"/>
	</linearGradient>
	<path class="st2" d="M740,367.7c-0.6,9.3-1.5,24-7.1,41c-11.9,36.3-36.8,58.2-49.2,68.8c-25.1,21.5-49.7,31.5-66,37.7
		c-84.6,32.5-158.2,48-253.9,74.3c-10.8,3-34,9.4-63.8,20.6c-22.8,8.6-45,16.9-69.8,30.8c-22.5,12.7-59.4,33.4-90.6,74.5
		c-11.3,14.8-26.9,39.1-37.9,73.4c1.5-10.8,3.9-22.1,7.5-33.8c3.7-12.2,8.6-24.7,12.3-33.8c12.1-17.5,29.4-41.1,51.7-67.3
		c25.4-30,44.6-48.4,65.9-69.5c88.8-87.8,133.8-132.8,166.3-190.9c23.3-41.6,29.9-68,32.8-83.5c2.7-14.5,11-61.5-6-112.3
		c-5.7-17.2-14.8-36-21.6-50.2c-0.6-1.2-1.1-2.3-1.7-3.4c139.3,86,252.2,156,331.2,203.4C740.5,354,740.5,360.5,740,367.7z"/>
	
		<linearGradient id="SVGID_3_" gradientUnits="userSpaceOnUse" x1="499.9466" y1="583.1677" x2="499.9466" y2="-117.5949" gradientTransform="matrix(1 0 0 -1 0 1077.8898)">
		<stop  offset="0" style="stop-color:#EDD86B"/>
		<stop  offset="0.101" style="stop-color:#ECCF60"/>
		<stop  offset="0.4966" style="stop-color:#E9AD37"/>
		<stop  offset="0.81" style="stop-color:#E8991E"/>
		<stop  offset="1" style="stop-color:#E79115"/>
	</linearGradient>
	<path class="st3" d="M900.3,538.8v1.1c-0.1,13.1-1.4,25.1-3.1,35.1c-2.4,12.5-6.3,25.5-12.4,38.4c-22.8,48.2-64.7,71.9-82.8,82.3
		c-83.2,47.7-240.8,146-450.7,275.3c-15,8.4-47.8,23.9-90.9,22c-55.7-2.4-107.3-33.2-136.4-78.8c0,0-32.7-51.4-22.4-125.3l0,0
		c11-34.2,26.6-58.5,37.9-73.4c31.2-41.1,68.1-61.8,90.6-74.5c24.7-13.9,47-22.2,69.8-30.8c29.8-11.2,53.1-17.7,63.8-20.6
		c95.7-26.3,169.3-41.8,253.9-74.3c16.3-6.3,40.9-16.2,66-37.7c12.4-10.6,37.3-32.5,49.2-68.8c5.6-17.1,6.5-31.8,7.1-41
		c0.5-7.2,0.5-13.6,0.1-20.1c23.7,14.2,44.4,26.5,61.8,36.4c18.1,10.4,60,34,82.8,82.3c6.1,12.9,10,25.8,12.4,38.4v0.1
		C898.9,514.6,900.2,526.1,900.3,538.8z"/>
	<g class="st4">
		<path class="st5" d="M267.6,141.6c23.8,0,43.4,7.9,56,14.7c44.2,27.2,85.5,52.7,125.4,77.4c144.9,89.4,259.3,160.1,325.6,198.1
			l0.6,0.3c15.6,9,44.7,25.6,59.9,57.8c3.6,7.7,6.3,16,8,24.7c1.4,8.4,2.1,16.6,2.2,24.5v0.6c0,8.2-0.8,16.8-2.2,25.6
			c-1.7,8.7-4.4,17-8,24.6c-15.2,32.1-44.2,48.8-59.9,57.7l-0.6,0.3C708.3,686,593.9,756.6,449,846.1c-40,24.7-81.3,50.2-125.5,77.4
			c-12.5,6.8-32.1,14.7-55.9,14.7c-1.6,0-3.2,0-4.8-0.1c-36.9-1.6-72.1-21.9-92.1-53c-0.9-1.6-7.8-14-12.3-33.4
			c-6.1-26.5-5-53.6,3.3-80.5c5.9-19.2,15.5-40.4,15.6-40.5c4.2-9.2,7.3-14.9,11.2-22.1c3.3-6.1,7-12.9,11.8-22.6
			c0.2-0.4,0.4-0.7,0.5-1c2.9-5.8,8.8-17.7,14.6-31.1l0.5-1.1l0.5-1.5l0.4-0.9l0.3-1c8.9-23.8,15.2-48.6,18.5-73.6l0,0l0,0
			c0.9-6.5,1.5-13.1,2-19.5v-0.1c0.1-0.9,0.1-1.9,0.2-2.8l0,0l0,0c0.2-3.3,0.4-6,0.5-8.5c0.1-1.2,0.1-2.3,0.1-3.4v-0.7v-0.7V540v-1
			v-0.8c-0.4-13.4-1.6-24.3-2.7-33.6c-3.1-25.8-9.6-51.2-19.1-75.6c0-0.1-0.1-0.1-0.1-0.2l0,0l0,0c-0.1-0.3-0.2-0.5-0.3-0.8
			c-4.6-11.7-10-23.2-16-34.3c-4.8-9.6-8.5-16.5-11.8-22.6c-3.9-7.2-7-12.8-11.2-22c-0.1-0.2-9.7-21.4-15.6-40.6
			c-8.2-26.9-9.3-54-3.3-80.5c4.4-19.4,11.3-31.9,12.3-33.4c20-31.1,55.2-51.4,92.1-53C264.4,141.6,266,141.6,267.6,141.6
			 M267.6,86.6c-2.4,0-4.8,0.1-7.2,0.2C204.7,89.2,153.1,120,124,165.6c0,0-43,67.5-14.9,159.1c7.1,23.1,18.2,47.3,18.2,47.3
			c8.9,19.4,13.8,26.1,23.9,46.5c0.1,0.2,0.2,0.5,0.3,0.7c4.7,8.5,9.5,18.5,13.9,29.7c0,0,0,0.1,0.1,0.2
			c6.9,17.6,12.9,38.5,15.8,62.2c0.9,7.3,2,17,2.3,28.5v0.1c0,0.8-0.1,1.6-0.1,2.4c-0.1,2.4-0.2,4.9-0.4,7.4c0,0.8-0.1,1.5-0.2,2.3
			c-0.4,5.3-1,10.7-1.7,16.4c-3.3,24.3-9.3,45.2-15.7,62.2c0,0.1,0,0.1-0.1,0.2c-5.2,12.2-10.7,23.3-13.9,29.7c0,0,0,0.1-0.1,0.1
			c-0.1,0.2-0.2,0.4-0.3,0.5c-10.1,20.4-15,27.1-23.9,46.5c0,0-11.1,24.2-18.2,47.3C80.9,846.5,123.9,914,123.9,914
			c29.1,45.7,80.7,76.4,136.4,78.8c2.4,0.1,4.8,0.2,7.2,0.2c39.5,0,69.5-14.3,83.7-22.1c210-129.2,367.6-227.5,450.8-275.2
			c18.1-10.4,60-34,82.8-82.3c6.1-12.9,10-25.9,12.4-38.4c1.7-10,3.1-22,3.1-35.1v-1.1c-0.1-12.7-1.5-24.2-3.1-34v-0.1
			c-2.4-12.5-6.3-25.5-12.4-38.4C862,418.1,820.1,394.4,802,384c-83.2-47.7-240.8-146-450.7-275.3
			C337.1,100.8,307.1,86.6,267.6,86.6L267.6,86.6z"/>
	</g>
</g>
</svg>
