<svg width="112" height="102" viewBox="0 0 112 102" fill="none" xmlns="http://www.w3.org/2000/svg">
<path d="M13.5757 56.7347H26.2583L26.437 58.8783L13.5757 58.6997V56.7347Z" fill="#615E5A"/>
<path d="M25.0078 59.2366H15.0046L15.3619 53.8778H24.6506L25.0078 59.2366Z" fill="#E9B77C"/>
<path d="M32.3319 74.5996H7.68115V59.4162L11.7896 59.2375L14.469 59.0589H14.6477H15.1836H17.5057H22.5073H25.3654H25.544L28.2234 59.2375L32.3319 59.4162V74.5996Z" fill="#E9B77C"/>
<path d="M32.3319 59.4164V74.5999H7.68115V59.4164L11.7896 59.2378L14.469 59.0592H14.6477L17.3271 58.8806L17.5057 59.0592L20.0065 62.0959L22.5073 59.0592L22.6859 58.8806L25.3654 59.0592H25.544L28.2234 59.2378L32.3319 59.4164Z" fill="#E5E5E5"/>
<path d="M20.8993 62.0942V74.5982H19.113V62.0942C19.4703 62.0942 19.6489 62.0942 20.0062 62.0942C20.3634 62.0942 20.5421 62.0942 20.8993 62.0942Z" fill="#C3CFCF"/>
<path d="M20.0064 62.0971L19.6491 62.4544L19.1132 63.1689L18.3987 64.2407L17.3269 65.491L16.4338 64.2407L15.362 62.4544L13.2185 58.8818L15.1834 57.0955L17.3269 58.8818L20.0064 62.0971Z" fill="white"/>
<path d="M26.7943 58.878L24.6507 62.4505L23.5789 64.2368L22.6858 65.4872L21.614 64.2368L20.8995 63.165L20.3636 62.4505L20.0063 62.0933L22.6858 58.878L24.8293 56.913L26.6156 58.878H26.7943Z" fill="white"/>
<path d="M19.1132 74.5984H7.32373V74.4197V74.5984H0L1.60765 63.8807C1.60765 63.8807 2.85801 58.3432 11.7894 57.6287C12.504 57.6287 13.2185 57.45 14.1116 57.45L14.6475 59.0577L19.1132 74.5984Z" fill="#ABA6A0"/>
<path d="M19.1132 74.5976H18.0414L13.3971 66.9166L14.4689 65.3089L12.3253 64.773L11.7894 59.2355L11.6108 57.6279V57.4492L13.933 56.7347L14.6475 59.0569L19.1132 74.5976Z" fill="#898581"/>
<path d="M40.1916 74.5984H20.8997L25.544 59.0577L26.0799 57.45C26.973 57.45 27.6876 57.45 28.4021 57.6287C37.3335 58.5218 38.5839 63.8807 38.5839 63.8807L40.1916 74.5984Z" fill="#9B9791"/>
<path d="M28.4021 57.4492V57.6279L28.2234 59.2355L27.6876 64.773L25.544 65.3089L26.6158 66.9166L22.1501 74.5976H20.8997L25.3654 59.0569L26.0799 56.7347L28.4021 57.4492Z" fill="#898581"/>
<path d="M15.362 49.2343C15.362 50.1275 14.6475 51.0206 13.7543 51.1992C12.8612 51.1992 11.9681 50.4847 11.7894 49.5916L11.6108 47.448C11.6108 46.5549 12.3253 45.6618 13.2185 45.4832C14.1116 45.4832 15.0048 46.1977 15.1834 47.0908L15.362 49.2343Z" fill="#E9B77C"/>
<path d="M24.6509 49.4127C24.6509 50.3058 25.3654 51.199 26.2585 51.3776C27.1517 51.3776 28.0448 50.6631 28.2234 49.77L28.4021 47.6264C28.4021 46.7333 27.6876 45.8401 26.7944 45.6615C25.9013 45.6615 25.0081 46.376 24.8295 47.2692L24.6509 49.4127Z" fill="#E9B77C"/>
<path d="M26.9729 43.875V47.8048C26.437 52.9851 27.1515 55.4859 22.5072 57.6294C22.5072 57.6294 21.7927 58.5225 19.8278 58.5225C17.8628 58.5225 17.1483 57.6294 17.1483 57.6294C12.8612 55.6645 13.3971 52.9851 12.6826 47.8048V43.875C12.6826 39.9451 15.8979 36.7298 19.8278 36.7298C23.7576 36.7298 26.9729 39.9451 26.9729 43.875Z" fill="#EFC485"/>
<path d="M15.005 42.4462C14.8263 42.4462 14.8263 42.4462 15.005 42.4462C13.9332 43.1607 13.7545 43.6966 13.5759 44.947C13.5759 45.1256 13.5759 45.1256 13.5759 45.3042C13.5759 45.4829 13.5759 45.4828 13.5759 45.6615C13.5759 45.8401 13.5759 45.8401 13.5759 46.0187C13.5759 46.1974 13.5759 46.376 13.5759 46.7332C13.5759 46.9119 13.5759 47.0905 13.5759 47.2692C13.5759 47.4478 13.5759 47.6264 13.3973 47.805V47.9837C13.3973 48.1623 13.2187 48.3409 13.2187 48.5195L13.04 48.6982C13.04 48.5195 13.04 48.3409 13.04 48.1623V44.2325C13.04 43.6966 13.04 43.3393 13.2187 42.8035C13.2187 42.6248 13.2187 42.4462 13.3973 42.2675C13.3973 42.2675 14.4691 42.2675 15.005 42.4462Z" fill="#F2E4C9"/>
<path d="M27.3302 43.1599C27.3302 43.3386 27.3302 43.3386 27.3302 43.5172C27.3302 43.6958 27.3302 43.8744 27.3302 43.8744L26.9729 47.6257C26.9729 47.8043 26.9729 47.9829 26.9729 48.1616L26.7943 47.9829C26.7943 47.9829 26.7943 47.8043 26.6157 47.6257C26.6157 47.447 26.6156 47.4471 26.437 47.2684C26.437 47.0898 26.437 46.9111 26.2584 46.7325C26.2584 46.5539 26.2584 46.3753 26.2584 46.1966C26.2584 46.018 26.2584 45.8394 26.2584 45.6607C26.2584 45.4821 26.2584 45.4821 26.2584 45.3035C26.2584 45.1249 26.2584 45.1249 26.2584 44.9462V44.7676C26.2584 44.589 26.2584 44.589 26.2584 44.589C25.7225 42.9813 24.8294 41.7309 25.008 40.1233C24.6507 40.4805 24.2935 40.4805 23.5789 40.6591C22.8644 40.8378 22.1499 40.8378 20.8995 40.8378C19.2919 40.8378 16.9697 41.9095 15.1834 42.2668C14.2903 42.4454 13.5758 42.6241 13.2185 42.2668C12.6826 42.0882 12.504 41.3737 13.0399 40.1233C13.933 37.9797 16.2552 36.5507 18.9346 36.0148C21.0781 35.6575 24.1148 36.1934 25.1866 38.5156C26.6156 39.2301 27.5088 41.195 27.3302 43.1599Z" fill="#F2E4C9"/>
<path d="M26.2583 46.9116C26.2583 47.0903 26.2583 47.2689 26.4369 47.4475C26.4369 47.2689 26.4369 47.0903 26.2583 46.9116Z" fill="#E5E5E5"/>
<path d="M85.3844 56.7352H98.0671L98.2457 58.8788L85.2058 58.7002L85.3844 56.7352Z" fill="#2E4347"/>
<path d="M96.6379 59.2351H86.6348L86.992 53.8762H96.2807L96.6379 59.2351Z" fill="#E9B77C"/>
<path d="M104.14 74.5959H79.311V59.4125L83.5981 59.2339L86.0989 59.0552H86.2775H86.992H89.1356H94.3158H97.1739H97.3525L100.032 59.2339L103.962 59.4125L104.14 74.5959Z" fill="#E9B77C"/>
<path d="M104.14 59.4128V74.5962H79.311V59.4128L83.5981 59.2341L86.0989 59.0555H86.2775L88.957 58.8769L89.1356 59.0555L91.6364 62.0922L94.3158 59.0555V58.8769L97.1739 59.0555H97.3525L100.032 59.2341L104.14 59.4128Z" fill="#ABDBE1"/>
<path d="M92.5299 62.0926V74.5966H90.7437V62.0926C91.1009 62.0926 91.2795 62.0926 91.6368 62.0926C91.9941 62.0926 92.3513 62.0926 92.5299 62.0926Z" fill="#96C5CF"/>
<path d="M91.6365 62.0913L91.4579 62.4486L90.922 63.1631L90.0289 64.2349L88.9571 65.4852L88.2426 64.2349L87.1708 62.4486L84.8486 58.876H85.0272L86.8135 57.0897L88.9571 58.876L91.6365 62.0913Z" fill="#D8E9EB"/>
<path d="M98.4243 58.8764L96.2808 62.449L95.209 64.2352L94.3159 65.4856L93.4228 64.2352L92.5296 63.1635L91.9938 62.449L91.6365 62.0917L94.3159 58.8764L96.4595 56.9115L98.4243 58.8764Z" fill="#D8E9EB"/>
<path d="M90.7434 74.5989H78.9539V74.4202V74.5989H71.6301L73.2378 63.8812C73.2378 63.8812 74.4882 58.3437 83.4196 57.6292C84.1341 57.6292 84.8487 57.4505 85.7418 57.4505L86.2777 59.0582L90.7434 74.5989Z" fill="#405C62"/>
<path d="M90.7432 74.5981H89.8501L85.0271 66.9171L86.2775 65.3094L84.1339 64.7735L83.5981 59.236L83.4194 57.6284V57.4497L85.563 56.7352L86.2775 59.0574L90.7432 74.5981Z" fill="#5E8891"/>
<path d="M112 74.5989H92.7083L97.3526 59.0582L97.8885 57.4505C98.7816 57.4505 99.4961 57.4505 100.211 57.6292C109.142 58.5223 110.392 63.8812 110.392 63.8812L112 74.5989Z" fill="#405C62"/>
<path d="M100.032 57.4497V57.6284V59.236L99.3176 64.7735L97.1741 65.3094L98.4245 66.9171L93.9588 74.5981H92.5298L97.1741 59.0574L97.8886 56.7352L100.032 57.4497Z" fill="#5E8891"/>
<path d="M87.1706 49.2306C87.1706 50.1238 86.4561 51.0169 85.563 51.1956C84.6699 51.1956 83.7767 50.481 83.5981 49.5879L83.4194 47.4443C83.4194 46.5512 84.1339 45.6581 85.0271 45.4795C85.9202 45.4795 86.8134 46.194 86.992 47.0871L87.1706 49.2306Z" fill="#E9B77C"/>
<path d="M96.281 49.409C96.281 50.3021 96.9955 51.1953 97.8887 51.3739C98.7818 51.3739 99.6749 50.6594 99.8536 49.7663L100.032 47.6227C100.032 46.7296 99.3177 45.8364 98.4245 45.6578C97.5314 45.6578 96.6383 46.3723 96.4596 47.2655L96.281 49.409Z" fill="#E9B77C"/>
<path d="M98.6028 43.8713V47.8011C98.0669 52.9814 98.7814 55.4822 94.1371 57.6257C94.1371 57.6257 93.4226 58.5188 91.4576 58.5188C89.4927 58.5188 88.7782 57.6257 88.7782 57.6257C84.4911 55.6608 85.027 52.9814 84.3125 47.8011V43.8713C84.3125 39.9415 87.5278 36.7261 91.4576 36.7261C95.3875 36.7261 98.6028 39.9415 98.6028 43.8713Z" fill="#EFC485"/>
<path d="M86.6348 42.4446C85.5631 43.1591 85.3844 43.695 85.2058 44.9454C85.2058 45.124 85.2058 45.124 85.2058 45.3027C85.2058 45.4813 85.2058 45.4812 85.2058 45.6599C85.2058 45.8385 85.2058 45.8385 85.2058 46.0172C85.2058 46.1958 85.2058 46.3744 85.2058 46.7317C85.2058 46.9103 85.2058 47.0889 85.2058 47.2676C85.2058 47.4462 85.2058 47.6248 85.0271 47.8034V47.9821C85.0271 48.1607 84.8486 48.3393 84.8486 48.5179L84.6699 48.6966C84.6699 48.518 84.6699 48.3393 84.6699 48.1607V44.2309C84.6699 43.695 84.6699 43.3377 84.8486 42.8019C84.8486 42.6232 84.8485 42.4446 85.0271 42.2659C85.2058 42.2659 86.099 42.266 86.6348 42.4446Z" fill="#BE894A"/>
<path d="M99.139 43.1577C99.139 43.3363 99.139 43.3363 99.139 43.5149C99.139 43.6936 99.139 43.8722 99.139 43.8722L98.7817 47.6234C98.7817 47.802 98.7817 47.9807 98.7817 48.1593L98.603 47.9807C98.603 47.9807 98.603 47.802 98.4244 47.6234C98.4244 47.4447 98.4244 47.4448 98.2458 47.2662C98.2458 47.0875 98.2458 46.9089 98.2458 46.7302C98.2458 46.5516 98.2458 46.373 98.2458 46.1944C98.2458 46.0157 98.2458 45.8371 98.2458 45.6585C98.2458 45.4798 98.2458 45.4799 98.2458 45.3012C98.2458 45.1226 98.2458 45.1226 98.2458 44.9439V44.7653V44.5867C97.7099 42.9791 96.8168 41.7287 96.9954 40.121C91.6365 42.6218 89.3144 42.2645 87.1708 42.4432C86.2777 42.6218 85.5632 44.7654 85.2059 44.5867C84.67 44.4081 83.9555 42.4431 85.0273 40.4782C85.9204 38.5133 88.2426 36.9057 90.922 36.3698C93.0656 36.0125 96.1023 36.5484 97.174 38.8706C98.2458 39.2278 99.139 41.1927 99.139 43.1577Z" fill="#BE894A"/>
<path d="M56.268 58.7005C55.9108 58.7005 55.5535 58.3433 55.5535 57.986V41.1949C55.5535 40.8376 55.9108 40.4804 56.268 40.4804C56.6253 40.4804 56.9825 40.8376 56.9825 41.1949V57.986C56.9825 58.3433 56.6253 58.7005 56.268 58.7005Z" fill="#A4A4A4"/>
<path d="M79.311 53.6983C79.1324 53.6983 78.9537 53.6984 78.7751 53.5197L66.807 41.5516C66.4497 41.1943 66.4497 40.8371 66.807 40.4798C67.1643 40.1226 67.5215 40.1226 67.8788 40.4798L79.8469 52.4479C80.2041 52.8052 80.2041 53.1625 79.8469 53.5197C79.6682 53.5197 79.4896 53.6983 79.311 53.6983Z" fill="#A4A4A4"/>
<path d="M32.8678 53.6983C32.6892 53.6983 32.5105 53.6984 32.3319 53.5197C31.9747 53.1625 31.9747 52.8052 32.3319 52.4479L44.3 40.4798C44.6573 40.1226 45.0146 40.1226 45.3718 40.4798C45.7291 40.8371 45.7291 41.1943 45.3718 41.5516L33.4037 53.5197C33.4037 53.5197 33.2251 53.6983 32.8678 53.6983Z" fill="#A4A4A4"/>
<path d="M60.9124 84.9527H51.4451L51.8023 79.9511H60.5551L60.9124 84.9527Z" fill="#E9B77C"/>
<path d="M51.6235 75.8446C51.6235 76.7378 50.909 77.6309 50.0159 77.8095C49.1227 77.8095 48.2296 77.095 48.051 76.2019L47.8723 74.0584C47.8723 73.1652 48.5868 72.2721 49.48 72.0934C50.3731 72.0934 51.2663 72.8079 51.4449 73.7011L51.6235 75.8446Z" fill="#E9B77C"/>
<path d="M60.9121 76.0229C60.9121 76.9161 61.6267 77.8092 62.5198 77.9878C63.413 77.9878 64.3061 77.2733 64.4847 76.3802L64.6633 74.2366C64.6633 73.3435 63.9488 72.4504 63.0557 72.2718C62.1625 72.2718 61.2694 72.9863 61.0907 73.8794L60.9121 76.0229Z" fill="#E9B77C"/>
<path d="M63.2344 70.307V74.0582C62.6985 79.2384 63.413 81.7392 58.7687 83.8828C58.7687 83.8828 58.0541 84.7759 56.0892 84.7759C54.1243 84.7759 53.4098 83.8828 53.4098 83.8828C49.1227 81.9179 49.6586 79.2384 48.9441 74.0582V70.307C48.9441 66.3772 52.1594 63.1618 56.0892 63.1618C60.0191 63.3405 63.2344 66.3772 63.2344 70.307Z" fill="#EFC485"/>
<path d="M51.0877 68.8775C50.0159 69.592 49.8373 70.1279 49.6587 71.3783C49.6587 71.5569 49.6587 71.5569 49.6587 71.7355C49.6587 71.9142 49.6587 71.9142 49.6587 72.0928C49.6587 72.2714 49.6587 72.2714 49.6587 72.45C49.6587 72.6287 49.6587 72.8073 49.6587 73.1646C49.6587 73.3432 49.6587 73.5218 49.6587 73.7005C49.6587 73.8791 49.6587 74.0577 49.48 74.2363V74.415C49.48 74.5936 49.3014 74.7722 49.3014 74.9509L49.1228 75.1295C49.1228 74.9508 49.1228 74.7722 49.1228 74.5936V70.8424C49.1228 70.3065 49.1228 69.9493 49.3014 69.4134C49.3014 69.2348 49.3014 69.0561 49.48 68.8775C49.6587 68.8775 50.5518 68.6988 51.0877 68.8775Z" fill="#492E15"/>
<path d="M68.7721 101.745H43.5854V92.635V92.099V90.3128V89.0624V88.1692V86.5616V86.383V85.3112L49.4802 84.9539H51.4451H53.5887H55.3749H56.6253H58.7689H60.9124H61.8055H62.8773L68.7721 85.3112V101.745Z" fill="#E9B77C"/>
<path d="M63.5916 69.7702C63.5916 69.9488 63.5916 69.9489 63.5916 70.1275C63.5916 70.3061 63.5916 70.4848 63.5916 70.4848L63.2344 74.2359C63.2344 74.4146 63.2344 74.5932 63.2344 74.7718L63.0558 74.5932C63.0558 74.5932 63.0558 74.4146 62.8771 74.2359C62.8771 74.0573 62.8771 74.0573 62.6985 73.8787C62.6985 73.7001 62.6985 73.5214 62.5199 73.3428C62.5199 73.1642 62.5199 72.9856 62.5199 72.8069C62.5199 72.6283 62.5199 72.4497 62.5199 72.2711C62.5199 72.0924 62.5199 72.0924 62.5199 71.9138C62.5199 71.7352 62.5199 71.7351 62.5199 71.5565V71.3779V71.1993C61.984 69.5916 61.0909 68.3412 61.2695 66.7336C60.9122 67.0908 60.555 67.0908 59.8405 67.2694C59.126 67.4481 58.4114 67.4481 57.161 67.4481C55.5534 67.4481 53.2312 68.5198 51.4449 68.8771C50.5518 69.0557 49.8372 69.2343 49.48 68.8771C48.9441 68.6984 48.7655 67.984 49.3013 66.7336C50.1945 64.59 52.5167 63.161 55.1961 62.6251C57.3397 62.2678 60.3763 62.8037 61.4481 65.1259C62.8771 65.6618 63.7703 67.6267 63.5916 69.7702Z" fill="#352110"/>
<path d="M68.7721 85.3114V101.745V101.924V101.745H43.5854V86.3832V85.3114L49.4802 84.9542H51.4451L53.41 84.7756L53.5887 84.9542L56.2681 87.9909L58.7689 84.9542L58.9475 84.7756L60.9124 84.9542H63.056L68.7721 85.3114Z" fill="#ACDBE1"/>
<path d="M43.5852 101.746H35.7256V101.567L35.9042 99.9598L36.2614 97.9949V97.4589L36.4401 96.0299L36.7973 94.065V93.5291L36.976 92.8146V92.2787C36.976 92.1001 37.1546 91.9215 37.1546 91.5642C38.2264 88.3489 41.0844 85.4909 43.4066 85.4909V86.5626V86.7412V88.3489V89.0634V90.4924V92.2787V92.8146V94.9582V95.4941V97.2804V98.7094V99.4239V101.746H43.5852Z" fill="#ACDBE1"/>
<path d="M76.8103 101.744H68.772V101.923V101.744V101.566V99.2435V98.529V97.1V95.3137V94.7778V92.6343V92.0983V90.3121V88.8831V88.1686V85.8463V85.3105C70.5583 85.3105 72.7018 86.9182 74.1308 89.0617C74.6667 90.1335 75.2026 91.3839 75.3812 92.4556V92.6343L75.5598 93.3488V93.8846L75.9171 95.8496L76.0957 97.2786V97.8145L76.453 99.7794L76.8103 101.744Z" fill="#ACDBE1"/>
<path d="M56.9823 87.9892V101.744H55.196V87.9892C55.5533 87.9892 55.7319 87.9892 56.0892 87.9892C56.4464 87.9892 56.8037 87.9892 56.9823 87.9892Z" fill="#7FC1D1"/>
<path d="M56.2681 87.9921L55.9108 88.3494L55.3749 89.2425L54.4818 90.1357L53.41 91.5647L52.6955 90.1357L51.6237 88.3494L49.3015 84.7768L51.2664 82.9905L53.41 84.7768L56.2681 87.9921Z" fill="#E1EDED"/>
<path d="M63.0557 84.7772L60.9121 88.3497L59.8404 90.136L58.9473 91.565L57.8755 90.136L56.9823 89.2429L56.4464 88.3497L56.2678 87.9925L58.9473 84.7772L61.0908 82.8122L63.0557 84.7772Z" fill="#E1EDED"/>
<path d="M68.0572 85.1322V85.3108L67.8787 85.1322H68.0572Z" fill="#BBDCDC"/>
<path d="M58.2329 67.0907C57.5184 68.1624 56.268 69.0556 55.0176 69.4129C55.9107 68.877 56.8039 67.9838 57.5184 67.2693C57.697 67.2693 58.0542 67.2693 58.2329 67.0907Z" fill="#352110"/>
<path d="M56.6252 67.2689C55.9107 67.9834 55.0176 68.6979 53.9458 69.0552C54.4817 68.5193 55.0176 67.9834 55.5534 67.4476C55.9107 67.4476 56.268 67.2689 56.6252 67.2689Z" fill="#352110"/>
<path d="M79.5404 0H31.2114V34.3672H79.5404V0Z" fill="#F17649"/>
<path d="M78.4664 0H32.2854V28.9974H78.4664V0Z" fill="#605D65"/>
<path d="M51.6169 8.5918V20.4055L60.2088 14.2174L51.6169 8.5918Z" fill="white"/>
</svg>
