<svg width="111" height="78" viewBox="0 0 111 78" fill="none" xmlns="http://www.w3.org/2000/svg">
<path d="M105.283 58.567C105.283 60.1127 103.909 61.315 102.363 61.315H8.41536C6.86961 61.315 5.49561 60.1127 5.49561 58.567V2.748C5.49561 1.20224 6.86961 0 8.41536 0H102.363C103.909 0 105.283 1.20224 105.283 2.748V58.567Z" fill="#534B55"/>
<path d="M101.161 5.15204H9.78979V55.9902H101.161V5.15204Z" fill="white"/>
<path d="M110.779 71.9641C110.779 75.0556 108.546 77.4601 105.798 77.4601H4.98067C2.23265 77.4601 -0.00012207 75.0556 -0.00012207 71.9641H110.779Z" fill="#D0D3D9"/>
<path d="M110.779 71.9627H-0.00012207L5.49592 61.3141H105.283L110.779 71.9627Z" fill="#9D9FA8"/>
<path d="M72.1353 70.9344C57.7082 70.9344 50.3229 70.9344 35.8959 70.9344C36.7546 69.2169 37.0982 68.3581 37.9569 66.6406C50.8382 66.6406 57.193 66.6406 70.0743 66.6406C70.9331 68.3581 71.2765 69.2169 72.1353 70.9344Z" fill="#C3C5CD"/>
<path d="M49.8079 40.0187C49.8079 44.4842 46.2012 48.2627 41.5639 48.2627C37.0984 48.2627 33.3198 44.6559 33.3198 40.0187C33.3198 35.5531 36.9266 31.7746 41.5639 31.7746C46.2012 31.9464 49.8079 35.5531 49.8079 40.0187Z" stroke="#52B188" stroke-miterlimit="10" stroke-linecap="round" stroke-linejoin="round"/>
<path d="M61.6585 32.8073H47.0597V47.4061H61.6585V32.8073Z" stroke="#2FAAC4" stroke-miterlimit="10" stroke-linecap="round" stroke-linejoin="round"/>
<path d="M46.888 20.2685L51.5252 28.3408L56.3343 36.5848H46.888H37.6134L42.2507 28.3408L46.888 20.2685Z" stroke="#F66251" stroke-miterlimit="10" stroke-linecap="round" stroke-linejoin="round"/>
<path d="M19.408 8.9296H12.538V32.8029H19.408V8.9296Z" fill="#D9DDE1"/>
<path d="M73.8529 8.9296H21.1255V13.2234H73.8529V8.9296Z" fill="#D9DDE1"/>
<path d="M97.3826 8.9296H77.6312V11.1624H97.3826V8.9296Z" fill="#534B64"/>
<path d="M97.3826 14.4275H77.6312V29.3698H97.3826V14.4275Z" fill="#E3E6E9"/>
<path d="M97.3826 32.804H77.6312V35.0368H97.3826V32.804Z" fill="#534B64"/>
<path d="M97.3826 38.3019H77.6312V48.9505H97.3826V38.3019Z" fill="#E3E6E9"/>
<path d="M74.0246 16.1448H71.7919V18.3776H74.0246V16.1448Z" fill="#F9400F"/>
<path d="M71.7918 16.1448H69.559V18.3776H71.7918V16.1448Z" fill="#F8E618"/>
<path d="M71.7918 18.5499H69.559V20.7827H71.7918V18.5499Z" fill="#BE894A"/>
<path d="M69.5588 16.1448H67.326V18.3776H69.5588V16.1448Z" fill="#4D9FC1"/>
<path d="M67.1545 16.1448H64.9218V18.3776H67.1545V16.1448Z" fill="#F7F719"/>
<path d="M74.0246 18.5499H71.7919V20.7827H74.0246V18.5499Z" fill="#2B589F"/>
<path d="M69.5588 18.5499H67.326V20.7827H69.5588V18.5499Z" fill="#7C411E"/>
<path d="M67.1545 18.5499H64.9218V20.7827H67.1545V18.5499Z" fill="#820C7D"/>
<path d="M64.9216 16.1448H62.6888V18.3776H64.9216V16.1448Z" fill="#F9A61F"/>
<path d="M19.408 8.9296H12.538V11.5059H19.408V8.9296Z" fill="#534B64"/>
<path d="M19.408 34.1795H12.538V52.9003H19.408V34.1795Z" fill="#D9DDE1"/>
<path d="M19.408 34.1795H12.538V36.7557H19.408V34.1795Z" fill="#534B64"/>
<path d="M93.9909 40.6994H81.2395V41.6212H93.9909V40.6994Z" fill="#B3B3B3"/>
<path d="M93.9909 42.3893H83.8512V43.3111H93.9909V42.3893Z" fill="#B3B3B3"/>
<path d="M93.9907 44.0793H82.7756V45.001H93.9907V44.0793Z" fill="#B3B3B3"/>
<path d="M93.8372 45.7692H85.8484V46.691H93.8372V45.7692Z" fill="#B3B3B3"/>
<path d="M94.9127 17.0675H81.2395V26.8999H94.9127V17.0675Z" fill="#F17649"/>
<path d="M94.6054 17.3747H81.7004V25.2099H94.6054V17.3747Z" fill="#605D65"/>
<path d="M86.9238 19.6792V22.9054L89.5356 21.2155L86.9238 19.6792Z" fill="white"/>
</svg>
