<svg width="105" height="112" viewBox="0 0 105 112" fill="none" xmlns="http://www.w3.org/2000/svg">
<path d="M90.6716 67.626V100.604H14.1633V67.626C14.1633 65.8122 14.9878 64.1633 16.142 62.8442C16.8015 62.1847 17.4611 61.69 18.2855 61.3602L18.4504 61.1953C18.4504 61.1953 18.4504 61.1953 18.6153 61.1953H18.7802C19.4398 61.0305 21.0886 60.3709 21.0886 60.3709C21.0886 60.3709 21.0886 60.3709 21.2535 60.3709L38.5668 53.9403L42.0295 56.4136L42.5241 56.7434L42.8539 57.0731L47.3059 60.3709L49.9441 56.9083L50.109 56.5785L51.9228 54.1051L53.7365 56.5785L53.9014 56.9083L56.5397 60.3709L61.3214 56.9083L61.981 56.4136L65.1138 54.1051L83.4165 60.5358C84.4058 60.8656 85.56 61.3602 86.0547 61.69C86.2196 61.69 86.2196 61.8549 86.3845 61.8549H86.5493C89.1876 62.6793 90.6716 64.9878 90.6716 67.626Z" fill="#9BCDDD"/>
<path d="M62.476 42.5618H42.0298V53.7742H62.476V42.5618Z" fill="#EEC4A7"/>
<path opacity="0.14" d="M54.0666 53.7754V100.439C53.4071 100.439 52.5826 100.439 51.9231 100.439C51.4284 100.439 50.9337 100.439 50.2742 100.439V53.7754H54.0666Z" fill="#4D4E68"/>
<path d="M52.0876 53.7738L49.9441 56.7418L47.141 60.5342L42.0294 56.7418L41.5348 56.412L37.9072 53.7738L40.5454 48.4974H41.5348L52.0876 53.7738Z" fill="#CEE5E7"/>
<path d="M66.4329 53.7738L63.1352 56.2471L62.3107 56.7418L57.1992 60.5342L54.3961 56.7418L52.0876 53.7738L62.8054 48.4974H63.7947L66.4329 53.7738Z" fill="#CEE5E7"/>
<path d="M36.7534 32.9977C36.2587 33.1626 35.7641 32.9977 35.4343 32.668C34.1152 32.0084 33.1259 30.0297 32.7961 27.5564C32.3014 24.2586 33.2908 21.2907 35.1045 20.9609C35.2694 20.9609 35.4343 20.9609 35.5992 20.9609C35.7641 20.9609 35.7641 20.9609 35.929 20.9609C36.2587 21.1258 36.7534 21.2906 37.0832 21.6204C38.0725 22.4449 38.897 24.2586 39.2267 26.4022C39.5565 29.8649 38.5672 32.668 36.7534 32.9977Z" fill="#EFD9B7"/>
<path d="M68.742 27.0625C68.742 29.0412 68.5771 31.0199 68.0825 32.9985C66.1038 42.3972 59.5083 49.4874 51.5936 49.4874C43.679 49.4874 36.9185 42.3972 35.1048 32.8336C34.775 31.0199 34.6101 29.2061 34.6101 27.2274C34.6101 25.0839 34.775 23.1052 35.2697 21.2914C35.2697 21.1266 35.2697 20.9617 35.4345 20.7968C35.4345 20.9617 35.5994 21.1266 35.5994 21.4563C35.9292 21.6212 36.4239 21.7861 36.7537 22.1159C36.259 19.9723 37.743 16.3448 39.0621 14.3661C40.711 11.7279 43.5141 11.2333 46.3172 10.7386C49.9447 10.079 53.4074 9.58437 57.0349 9.58437C59.6731 9.58437 60.6625 9.91415 62.806 11.3981C61.8167 14.6959 64.6198 19.6426 67.0931 22.1159C67.4229 21.7861 67.7527 21.4563 68.2474 21.4563C68.4122 21.7861 68.4122 22.2808 68.4122 22.6106C68.742 23.9297 68.742 25.4137 68.742 27.0625Z" fill="#EFD9B7"/>
<path d="M69.4011 18.8186C69.4011 19.6431 69.4011 20.4675 69.2362 21.1271C68.9065 21.1271 68.5767 21.1271 68.2469 21.1271C67.9171 21.2919 67.4225 21.4568 67.0927 21.7866C64.4545 19.3133 61.8163 14.3666 62.8056 11.0689C60.662 9.58487 59.6727 9.25509 57.0345 9.25509C53.2421 9.25509 49.9443 9.74975 46.3167 10.4093C43.5136 11.0689 40.7105 11.5635 39.0617 14.0369C37.9074 15.8506 36.2585 19.6431 36.7532 21.7866C36.4234 21.4568 35.4341 21.2919 35.1043 21.1271C35.1043 20.9622 33.4554 15.356 35.9288 11.7284C39.7212 5.79243 44.3381 2 50.9336 2C56.3749 2 63.3003 5.13288 63.3003 9.58487C65.114 8.92531 66.1034 9.74975 67.0927 10.904C68.7416 13.2124 69.4011 16.3453 69.4011 18.8186Z" fill="#67401D"/>
<path d="M71.545 27.7232C71.0503 30.5264 69.7312 32.6699 68.4121 32.9997C68.0824 33.1646 67.7526 33.1646 67.5877 32.9997C65.7739 32.6699 64.7846 29.7019 65.2792 26.4041C65.609 24.4255 66.4335 22.7766 67.2579 21.7873C67.5877 21.4575 67.9175 21.1277 68.4121 21.1277C68.7419 20.9628 69.0717 20.9628 69.4015 21.1277C71.0503 21.4575 72.0397 24.4255 71.545 27.7232Z" fill="#EFD9B7"/>
<path d="M68.082 35.8002C68.082 35.4704 67.9171 35.1406 67.9171 34.9757C67.7523 34.8108 67.9171 34.3162 67.9171 33.9864C67.9171 33.4917 67.9171 33.3268 68.082 33.1619C68.082 32.8322 68.2469 32.6673 68.082 32.1726L67.7523 31.8428C67.4225 31.678 67.4225 31.678 67.0927 31.678C66.7629 31.678 66.2683 31.8428 66.1034 32.0077C65.2789 32.5024 64.7843 33.6566 64.2896 34.4811C63.4652 35.9651 62.1461 38.4384 59.8376 37.7788C58.5185 37.2842 57.8589 35.6353 56.3749 34.9757C55.3856 34.6459 54.3963 34.6459 53.407 34.4811C51.4283 34.3162 48.1305 33.9864 46.3168 34.8108C44.9976 35.4704 45.1625 37.2842 43.3488 37.449C42.6892 37.449 42.0297 37.2842 41.535 37.1193C41.0403 36.9544 40.7106 36.6246 40.3808 36.1299C39.2266 35.1406 38.7319 33.6566 38.0723 32.3375C37.9074 32.0077 37.7426 31.678 37.5777 31.1833C36.2586 31.3482 35.7639 32.0077 35.599 32.8322C35.4341 33.1619 35.4341 33.6566 35.599 33.9864C35.599 35.1406 36.0937 36.4597 36.0937 37.6139C37.2479 39.4277 37.4128 42.0659 39.0617 43.5499C39.3914 41.901 40.5457 44.0446 41.0403 44.7041C41.0403 44.869 41.2052 45.0339 41.2052 45.0339C41.535 45.6935 42.0297 46.353 42.6892 46.8477C43.1839 47.3424 43.6785 47.6721 44.1732 48.0019C44.9976 48.4966 46.1519 48.3317 46.9763 48.8263C48.1305 49.4859 49.6145 50.3103 50.7688 50.9699C50.7688 50.805 50.9336 50.6401 50.9336 50.3103C52.7474 50.1455 52.9123 51.9592 54.7261 50.4752C55.7154 49.8157 56.375 49.1561 57.3643 48.6615C57.6941 48.4966 57.859 48.3317 58.1887 48.1668C58.5185 48.0019 59.1781 47.837 59.6727 47.5072C60.1674 47.3424 60.662 47.0126 61.3216 46.6828C63.1354 45.6935 64.7843 44.3744 64.1247 42.8904C65.7736 40.9117 67.0927 39.9224 67.9171 37.1193C67.9171 36.6246 68.082 36.2948 68.082 35.8002ZM47.1412 39.2628C47.6359 38.7682 48.4603 38.6033 49.4496 38.4384C50.9336 37.7788 51.4283 37.7788 53.0772 38.1086C54.0665 38.4384 55.0558 38.1086 55.8803 38.6033C56.7047 38.933 57.8589 40.2521 57.6941 41.4064C57.6941 42.3957 55.8803 44.0446 54.891 43.5499C53.9016 43.2201 53.2421 41.5713 52.0879 41.5713C51.0985 41.7361 51.2634 43.0553 50.6039 43.7148C50.6039 43.7148 50.439 43.8797 50.2741 43.8797C50.1092 43.8797 49.7794 43.8797 49.6145 43.8797C48.955 43.7148 48.2954 43.385 47.9656 43.2201C46.8114 42.5606 45.6572 40.5819 47.1412 39.2628Z" fill="#67401D"/>
<path d="M52.0879 9.58437C51.2634 10.079 50.439 10.5737 49.7794 11.2333C48.2954 12.3875 46.8114 13.7066 45.6572 15.1906C46.4817 13.3768 47.3061 11.563 48.6252 10.079C49.6145 9.74925 50.9337 9.58437 52.0879 9.58437Z" fill="#67401D"/>
<path d="M47.9658 10.079C46.1521 10.9034 44.5032 12.0576 43.1841 13.3767C43.5139 12.3874 44.1734 11.3981 44.9979 10.5736C45.3276 10.4088 45.8223 10.4088 46.1521 10.2439C46.8116 10.2439 47.4712 10.2439 47.9658 10.079Z" fill="#67401D"/>
<path d="M60.0027 21.1251C56.7049 21.1251 53.0774 22.1144 52.088 22.1144C51.0987 22.1144 47.4712 21.1251 44.1734 21.1251C40.8756 21.1251 36.7534 21.9495 36.7534 21.9495V24.258L37.9076 24.5877C37.9076 27.3908 39.3916 32.3375 44.6681 32.3375C49.9445 32.3375 50.7689 26.5664 50.9338 25.742C51.0987 24.9175 51.5934 24.5877 52.2529 24.5877C52.9125 24.5877 53.4072 24.9175 53.572 25.742C53.7369 26.5664 54.5614 32.3375 59.8378 32.3375C65.1142 32.3375 66.5982 27.3908 66.5982 24.5877L67.7524 24.258V21.9495C67.4227 21.9495 63.1356 21.1251 60.0027 21.1251ZM50.1094 24.258C50.1094 27.5557 47.6361 31.0184 44.5032 31.0184C41.3703 31.0184 39.0619 29.2046 38.7321 26.2366C38.5672 24.258 39.3916 23.1037 41.2054 22.6091C43.0192 22.1144 49.9445 21.7846 50.1094 24.258ZM65.444 26.0717C65.1142 29.0397 62.8058 30.8535 59.6729 30.8535C56.54 30.8535 54.0667 27.5557 54.0667 24.0931V23.9282C54.2316 21.6198 61.3218 21.9495 62.9707 22.2793C64.7844 22.9389 65.6089 24.0931 65.444 26.0717Z" fill="#4E372C"/>
<path opacity="0.47" d="M65.4439 26.0713C65.1142 29.0393 62.8057 30.853 59.6728 30.853C56.54 30.853 54.0667 27.5553 54.0667 24.0926V23.9277C54.2315 21.6193 61.3217 21.949 62.9706 22.2788C64.7844 22.9384 65.6088 24.0926 65.4439 26.0713Z" fill="white"/>
<path opacity="0.47" d="M50.1093 24.0906C50.1093 27.5533 47.636 30.8511 44.5031 30.8511C41.3703 30.8511 39.0618 29.0373 38.732 26.0693C38.5671 24.0906 39.3916 22.9364 41.2054 22.4417C43.0191 22.112 49.9445 21.7822 50.1093 24.0906Z" fill="white"/>
<path d="M36.7532 21.9495H35.4341V24.093H36.7532V21.9495Z" fill="white"/>
<path d="M68.5766 21.9495H67.4224V24.093H68.5766V21.9495Z" fill="white"/>
<path d="M14.6581 64.8222V100.603L1.13721 90.7097L14.6581 64.8222Z" fill="#9BCDDD"/>
<path d="M27.6842 90.2161C32.7957 91.5352 35.7637 96.8117 34.4446 101.923C33.1255 107.035 27.8491 110.003 22.7375 108.684L7.07313 104.397C1.96158 103.077 -1.0064 97.801 0.312703 92.6895C1.63181 87.5779 6.90824 84.6099 12.0198 85.929L27.6842 90.2161Z" fill="#90C1D2"/>
<path d="M90.1768 64.8222V100.603L103.863 90.7097L90.1768 64.8222Z" fill="#9BCDDD"/>
<path d="M77.3158 90.2161C72.2043 91.5352 69.2363 96.8117 70.5554 101.923C71.8745 107.035 77.1509 110.003 82.2625 108.684L97.9269 104.397C103.038 103.077 106.006 97.801 104.687 92.6895C103.368 87.5779 98.0917 84.6099 92.9802 85.929L77.3158 90.2161Z" fill="#90C1D2"/>
<path d="M87.5389 67.46V109.507C87.5389 110.496 86.7144 111.32 85.7251 111.32H19.1102C18.1208 111.32 17.2964 110.496 17.2964 109.507V67.46C17.2964 66.4706 18.1208 65.6462 19.1102 65.6462H85.7251C86.7144 65.6462 87.5389 66.4706 87.5389 67.46Z" fill="#B4BDBE"/>
<path d="M87.5398 65.4818V67.4605C87.5398 66.4712 86.7154 65.6467 85.7261 65.6467H19.1111C18.1218 65.6467 17.2974 66.4712 17.2974 67.4605V65.4818C17.2974 64.4925 18.1218 63.668 19.1111 63.668H85.7261C86.7154 63.668 87.5398 64.4925 87.5398 65.4818Z" fill="white"/>
<path opacity="0.96" d="M87.5388 87.4143V107.201L93.6397 105.552L87.5388 87.4143Z" fill="#DDE1E3"/>
<path opacity="0.96" d="M17.2962 87.4143V107.201L11.1953 105.552L17.2962 87.4143Z" fill="#DDE1E3"/>
<path d="M55.5502 82.9589C55.5502 84.7727 54.0662 86.0918 52.4173 86.0918C50.6035 86.0918 49.2844 84.6078 49.2844 82.9589C49.2844 81.1451 50.7684 79.826 52.4173 79.826C54.2311 79.826 55.5502 81.31 55.5502 82.9589Z" fill="#DDE1E3"/>
<path d="M68.7244 20.5V33C70.7356 32.5 70.1013 33.7174 71.1865 32.2251C71.39 32.3132 71.6161 32.3738 71.8799 32.3738H72.1512C72.626 32.3738 73.0179 32.1866 73.259 31.9498C73.5002 31.713 73.6283 31.4212 73.6283 31.1073V29.9399V28.1944V17.286H72.8973C72.4979 17.286 72.1813 17.0492 72.1813 16.7574C72.1813 16.7023 72.1813 16.6417 72.1813 16.5812C72.1813 8.28287 62.9794 1.55943 51.622 1.55943C40.2722 1.55943 31.0627 8.28287 31.0627 16.5812C31.0627 16.6417 31.0627 16.6968 31.0627 16.7574C31.0702 17.0492 30.7462 17.286 30.3468 17.286H29.6157V31.1073C29.6157 31.4212 29.7438 31.713 29.985 31.9498C30.2186 32.1866 30.6181 32.3738 31.0929 32.3738H31.3717C31.6129 32.3738 31.8239 32.3242 32.0198 32.2472C33.1126 33.7229 32.9126 32.478 35.3694 32.5V21C33.4326 21.0165 34.0396 20.9258 32.8564 21.917V17.7981C33.4593 17.7155 33.9039 17.3466 33.9642 16.895L33.9793 16.8455V16.6858C33.9793 13.1231 35.9538 9.90178 39.1493 7.56702C42.3447 5.23227 46.7535 3.78957 51.6296 3.78957C56.5056 3.78957 60.9144 5.23227 64.1098 7.56702C67.3053 9.90178 69.2798 13.1231 69.2798 16.6858V16.7959V16.8014C69.2798 17.2915 69.7546 17.7045 70.4027 17.7981V21.9665C69.2195 20.9478 70.6839 20.5165 68.7244 20.5Z" fill="#949197"/>
<path d="M72.8973 17.786H73.6284H74.284C74.6759 17.786 74.9925 17.5547 75 17.2739C75 17.2078 75 17.1472 75 17.0812C75.0075 7.64853 64.5395 0 51.6296 0C38.7122 0 28.2441 7.64853 28.2441 17.0812C28.2441 17.1472 28.2441 17.2078 28.2441 17.2739C28.2517 17.5602 28.5682 17.786 28.9601 17.786H29.6158H30.3468C30.7462 17.786 31.0703 17.5492 31.0628 17.2574C31.0628 17.2023 31.0628 17.1417 31.0628 17.0812C31.0628 8.78287 40.2647 2.05943 51.6221 2.05943C62.9794 2.05943 72.1814 8.78287 72.1814 17.0812C72.1814 17.1417 72.1814 17.1968 72.1814 17.2574C72.1814 17.5492 72.4979 17.786 72.8973 17.786Z" fill="#83DCE2"/>
<path d="M74 27.5C74 28.8889 73.5455 30 73 30C72.8788 30 72.7576 29.9444 72.6364 29.8333C72.2727 29.5 72 28.5556 72 27.5C72 26.4444 72.2727 25.5556 72.6364 25.1667C72.7576 25.0556 72.8788 25 73 25C73.5758 25.0556 74 26.1667 74 27.5Z" fill="#83DCE2"/>
<path d="M31 27.5C31 28.8889 30.5455 30 30 30C29.8788 30 29.7576 29.9444 29.6364 29.8333C29.2727 29.5 29 28.5556 29 27.5C29 26.4444 29.2727 25.5556 29.6364 25.1667C29.7576 25.0556 29.8788 25 30 25C30.5758 25.0556 31 26.1667 31 27.5Z" fill="#83DCE2"/>
</svg>
