<svg width="50" height="50" viewBox="0 0 50 50" fill="none" xmlns="http://www.w3.org/2000/svg">
<g clip-path="url(#clip0)">
<path d="M31.0971 23.4105C30.7834 22.9155 30.3377 22.4205 29.7599 22.107C29.2977 21.876 29.0006 21.4965 28.7365 21.051C27.8946 19.632 28.3898 17.7675 29.793 16.926C31.4437 15.9855 31.972 13.89 31.0145 12.2565L29.9085 10.3095C28.9676 8.676 26.9041 8.0985 25.2699 9.0555C23.8172 9.8475 21.9518 9.3195 21.1099 7.917C20.8458 7.455 20.6972 6.96 20.7302 6.465C20.7798 5.8215 20.5817 5.211 20.2845 4.716C19.6738 3.693 18.5677 3 17.3462 3H15.0186C13.8135 3.033 12.7075 3.693 12.0967 4.716C11.7831 5.211 11.6015 5.8215 11.6345 6.465C11.6675 6.96 11.519 7.455 11.2548 7.917C10.4129 9.3195 8.54758 9.8475 7.11141 9.0555C5.46064 8.0985 3.41369 8.676 2.45625 10.3095L1.35023 12.2565C0.409293 13.89 0.937539 15.9855 2.5718 16.926C3.97495 17.7675 4.47018 19.632 3.6448 21.051C3.36417 21.4965 3.06703 21.876 2.60481 22.107C2.04355 22.4205 1.54832 22.9155 1.2842 23.4105C0.673416 24.4335 0.706431 25.7205 1.31722 26.793L2.45625 28.773C3.06703 29.829 4.20606 30.489 5.39461 30.489C5.95587 30.489 6.61618 30.324 7.14443 29.994C7.55712 29.7135 8.05235 29.6145 8.5971 29.6145C10.2314 29.6145 11.6015 30.984 11.6345 32.6175C11.6345 34.515 13.1532 36 15.0681 36H17.3132C19.2115 36 20.7302 34.515 20.7302 32.6175C20.7798 30.984 22.1499 29.6145 23.7842 29.6145C24.3124 29.6145 24.8076 29.7135 25.2368 29.994C25.7651 30.324 26.4089 30.489 26.9867 30.489C28.1587 30.489 29.2977 29.829 29.9085 28.773L31.0641 26.793C31.6583 25.6875 31.7079 24.4335 31.0971 23.4105" fill="url(#paint0_linear)" fill-opacity="0.8"/>
<path d="M31.0971 23.4105C30.7834 22.9155 30.3377 22.4205 29.7599 22.107C29.2977 21.876 29.0006 21.4965 28.7365 21.051C27.8946 19.632 28.3898 17.7675 29.793 16.926C31.4437 15.9855 31.972 13.89 31.0145 12.2565L29.9085 10.3095C28.9676 8.676 26.9041 8.0985 25.2699 9.0555C23.8172 9.8475 21.9518 9.3195 21.1099 7.917C20.8458 7.455 20.6972 6.96 20.7302 6.465C20.7798 5.8215 20.5817 5.211 20.2845 4.716C19.6738 3.693 18.5677 3 17.3462 3H15.0186C13.8135 3.033 12.7075 3.693 12.0967 4.716C11.7831 5.211 11.6015 5.8215 11.6345 6.465C11.6675 6.96 11.519 7.455 11.2548 7.917C10.4129 9.3195 8.54758 9.8475 7.11141 9.0555C5.46064 8.0985 3.41369 8.676 2.45625 10.3095L1.35023 12.2565C0.409293 13.89 0.937539 15.9855 2.5718 16.926C3.97495 17.7675 4.47018 19.632 3.6448 21.051C3.36417 21.4965 3.06703 21.876 2.60481 22.107C2.04355 22.4205 1.54832 22.9155 1.2842 23.4105C0.673416 24.4335 0.706431 25.7205 1.31722 26.793L2.45625 28.773C3.06703 29.829 4.20606 30.489 5.39461 30.489C5.95587 30.489 6.61618 30.324 7.14443 29.994C7.55712 29.7135 8.05235 29.6145 8.5971 29.6145C10.2314 29.6145 11.6015 30.984 11.6345 32.6175C11.6345 34.515 13.1532 36 15.0681 36H17.3132C19.2115 36 20.7302 34.515 20.7302 32.6175C20.7798 30.984 22.1499 29.6145 23.7842 29.6145C24.3124 29.6145 24.8076 29.7135 25.2368 29.994C25.7651 30.324 26.4089 30.489 26.9867 30.489C28.1587 30.489 29.2977 29.829 29.9085 28.773L31.0641 26.793C31.6583 25.6875 31.7079 24.4335 31.0971 23.4105" fill="white" fill-opacity="0.25"/>
<g opacity="0.5" filter="url(#filter0_f)">
<path d="M23.98 21.6056C23.8183 21.3508 23.5885 21.096 23.2906 20.9346C23.0522 20.8157 22.899 20.6204 22.7628 20.3911C22.3287 19.6607 22.5841 18.7011 23.3076 18.268C24.1588 17.7839 24.4311 16.7053 23.9374 15.8645L23.3672 14.8624C22.882 14.0216 21.818 13.7244 20.9753 14.217C20.2263 14.6246 19.2645 14.3528 18.8304 13.631C18.6942 13.3932 18.6176 13.1384 18.6346 12.8836C18.6601 12.5524 18.558 12.2382 18.4048 11.9834C18.0899 11.4568 17.5196 11.1002 16.8897 11.1002H15.6895C15.0682 11.1171 14.4979 11.4568 14.183 11.9834C14.0212 12.2382 13.9276 12.5524 13.9446 12.8836C13.9616 13.1384 13.885 13.3932 13.7489 13.631C13.3148 14.3528 12.3529 14.6246 11.6124 14.217C10.7612 13.7244 9.70576 14.0216 9.21208 14.8624L8.64179 15.8645C8.15662 16.7053 8.429 17.7839 9.27166 18.268C9.99516 18.7011 10.2505 19.6607 9.82493 20.3911C9.68023 20.6204 9.52702 20.8157 9.28869 20.9346C8.99929 21.096 8.74393 21.3508 8.60775 21.6056C8.29281 22.1321 8.30983 22.7945 8.62477 23.3466L9.21208 24.3657C9.52702 24.9092 10.1143 25.2489 10.7272 25.2489C11.0166 25.2489 11.357 25.164 11.6294 24.9941C11.8422 24.8498 12.0976 24.7988 12.3785 24.7988C13.2211 24.7988 13.9276 25.5037 13.9446 26.3445C13.9446 27.3211 14.7277 28.0854 15.7151 28.0854H16.8727C17.8515 28.0854 18.6346 27.3211 18.6346 26.3445C18.6601 25.5037 19.3666 24.7988 20.2093 24.7988C20.4817 24.7988 20.737 24.8498 20.9583 24.9941C21.2307 25.164 21.5627 25.2489 21.8606 25.2489C22.4649 25.2489 23.0522 24.9092 23.3672 24.3657L23.963 23.3466C24.2694 22.7775 24.2949 22.1321 23.98 21.6056" fill="#EECD58"/>
</g>
<g filter="url(#filter1_b)">
<mask id="path-3-outside-1" maskUnits="userSpaceOnUse" x="8.9541" y="6.36768" width="40" height="42" fill="black">
<rect fill="white" x="8.9541" y="6.36768" width="40" height="42"/>
<path d="M46.6301 31.8803C46.2499 31.2858 45.7096 30.6913 45.0092 30.3148C44.4489 30.0374 44.0887 29.5816 43.7685 29.0466C42.748 27.3424 43.3483 25.1032 45.0493 24.0925C47.0504 22.963 47.6907 20.4464 46.5301 18.4845L45.1893 16.1462C44.0487 14.1844 41.5473 13.4909 39.5662 14.6402C37.8052 15.5914 35.5439 14.9573 34.5233 13.2729C34.2032 12.718 34.0231 12.1236 34.0631 11.5291C34.1231 10.7562 33.883 10.023 33.5228 9.42856C32.7824 8.19995 31.4416 7.36768 29.9608 7.36768H27.1392C25.6784 7.40731 24.3376 8.19995 23.5972 9.42856C23.217 10.023 22.9968 10.7562 23.0369 11.5291C23.0769 12.1236 22.8968 12.718 22.5766 13.2729C21.556 14.9573 19.2948 15.5914 17.5538 14.6402C15.5527 13.4909 13.0713 14.1844 11.9106 16.1462L10.5699 18.4845C9.42921 20.4464 10.0696 22.963 12.0507 24.0925C13.7516 25.1032 14.352 27.3424 13.3514 29.0466C13.0112 29.5816 12.651 30.0374 12.0907 30.3148C11.4103 30.6913 10.81 31.2858 10.4898 31.8803C9.74939 33.1089 9.78941 34.6545 10.5298 35.9426L11.9106 38.3205C12.651 39.5888 14.0318 40.3814 15.4726 40.3814C16.153 40.3814 16.9534 40.1833 17.5938 39.7869C18.0941 39.4501 18.6944 39.3312 19.3548 39.3312C21.3359 39.3312 22.9968 40.9759 23.0369 42.9377C23.0369 45.2166 24.8779 47 27.1992 47H29.9207C32.222 47 34.0631 45.2166 34.0631 42.9377C34.1231 40.9759 35.784 39.3312 37.7652 39.3312C38.4055 39.3312 39.0059 39.4501 39.5261 39.7869C40.1665 40.1833 40.9469 40.3814 41.6473 40.3814C43.0681 40.3814 44.4489 39.5888 45.1893 38.3205L46.5901 35.9426C47.3105 34.6149 47.3706 33.1089 46.6301 31.8803"/>
</mask>
<path d="M46.6301 31.8803C46.2499 31.2858 45.7096 30.6913 45.0092 30.3148C44.4489 30.0374 44.0887 29.5816 43.7685 29.0466C42.748 27.3424 43.3483 25.1032 45.0493 24.0925C47.0504 22.963 47.6907 20.4464 46.5301 18.4845L45.1893 16.1462C44.0487 14.1844 41.5473 13.4909 39.5662 14.6402C37.8052 15.5914 35.5439 14.9573 34.5233 13.2729C34.2032 12.718 34.0231 12.1236 34.0631 11.5291C34.1231 10.7562 33.883 10.023 33.5228 9.42856C32.7824 8.19995 31.4416 7.36768 29.9608 7.36768H27.1392C25.6784 7.40731 24.3376 8.19995 23.5972 9.42856C23.217 10.023 22.9968 10.7562 23.0369 11.5291C23.0769 12.1236 22.8968 12.718 22.5766 13.2729C21.556 14.9573 19.2948 15.5914 17.5538 14.6402C15.5527 13.4909 13.0713 14.1844 11.9106 16.1462L10.5699 18.4845C9.42921 20.4464 10.0696 22.963 12.0507 24.0925C13.7516 25.1032 14.352 27.3424 13.3514 29.0466C13.0112 29.5816 12.651 30.0374 12.0907 30.3148C11.4103 30.6913 10.81 31.2858 10.4898 31.8803C9.74939 33.1089 9.78941 34.6545 10.5298 35.9426L11.9106 38.3205C12.651 39.5888 14.0318 40.3814 15.4726 40.3814C16.153 40.3814 16.9534 40.1833 17.5938 39.7869C18.0941 39.4501 18.6944 39.3312 19.3548 39.3312C21.3359 39.3312 22.9968 40.9759 23.0369 42.9377C23.0369 45.2166 24.8779 47 27.1992 47H29.9207C32.222 47 34.0631 45.2166 34.0631 42.9377C34.1231 40.9759 35.784 39.3312 37.7652 39.3312C38.4055 39.3312 39.0059 39.4501 39.5261 39.7869C40.1665 40.1833 40.9469 40.3814 41.6473 40.3814C43.0681 40.3814 44.4489 39.5888 45.1893 38.3205L46.5901 35.9426C47.3105 34.6149 47.3706 33.1089 46.6301 31.8803" fill="#FFB800" fill-opacity="0.8"/>
<path d="M45.7877 32.4191C46.0853 32.8843 46.7037 33.0203 47.1689 32.7227C47.6342 32.4251 47.7702 31.8068 47.4726 31.3415L45.7877 32.4191ZM45.0092 30.3148L45.4827 29.434C45.4729 29.4287 45.463 29.4236 45.453 29.4186L45.0092 30.3148ZM43.7685 29.0466L44.6266 28.5331L44.6265 28.5328L43.7685 29.0466ZM45.0493 24.0925L44.5577 23.2217C44.5513 23.2253 44.5448 23.229 44.5385 23.2328L45.0493 24.0925ZM46.5301 18.4845L45.6625 18.982L45.6694 18.9937L46.5301 18.4845ZM45.1893 16.1462L46.0569 15.6488L46.0538 15.6436L45.1893 16.1462ZM39.5662 14.6402L40.0414 15.5201C40.0503 15.5152 40.0592 15.5103 40.068 15.5052L39.5662 14.6402ZM34.5233 13.2729L33.6572 13.7727C33.6608 13.7789 33.6644 13.785 33.6681 13.7911L34.5233 13.2729ZM34.0631 11.5291L33.066 11.4516L33.0653 11.4619L34.0631 11.5291ZM33.5228 9.42856L32.6663 9.94472L32.6675 9.94676L33.5228 9.42856ZM27.1392 7.36768V6.36768C27.1301 6.36768 27.1211 6.3678 27.1121 6.36804L27.1392 7.36768ZM23.5972 9.42856L24.4396 9.96735C24.4444 9.95987 24.4491 9.95233 24.4537 9.94472L23.5972 9.42856ZM23.0369 11.5291L22.0382 11.5808C22.0385 11.5859 22.0388 11.5911 22.0391 11.5962L23.0369 11.5291ZM22.5766 13.2729L23.4319 13.7911C23.4356 13.785 23.4392 13.7789 23.4427 13.7727L22.5766 13.2729ZM17.5538 14.6402L17.0557 15.5074C17.0619 15.5109 17.0681 15.5144 17.0743 15.5178L17.5538 14.6402ZM11.9106 16.1462L11.0499 15.637L11.0431 15.6488L11.9106 16.1462ZM10.5699 18.4845L11.4344 18.9872L11.4374 18.982L10.5699 18.4845ZM12.0507 24.0925L12.5615 23.2328C12.5563 23.2298 12.5512 23.2268 12.546 23.2238L12.0507 24.0925ZM13.3514 29.0466L14.1953 29.5831C14.2016 29.5731 14.2078 29.5631 14.2138 29.5529L13.3514 29.0466ZM12.0907 30.3148L11.647 29.4186C11.6333 29.4254 11.6199 29.4325 11.6065 29.4398L12.0907 30.3148ZM10.4898 31.8803L11.3463 32.3964C11.3546 32.3826 11.3626 32.3686 11.3702 32.3545L10.4898 31.8803ZM10.5298 35.9426L9.66285 36.441L9.66505 36.4447L10.5298 35.9426ZM11.9106 38.3205L11.0458 38.8227L11.047 38.8247L11.9106 38.3205ZM17.5938 39.7869L18.1201 40.6373C18.131 40.6305 18.1417 40.6236 18.1524 40.6164L17.5938 39.7869ZM23.0369 42.9377H24.0369C24.0369 42.9309 24.0368 42.9241 24.0367 42.9173L23.0369 42.9377ZM34.0631 42.9377L33.0635 42.9071C33.0632 42.9173 33.0631 42.9275 33.0631 42.9377H34.0631ZM39.5261 39.7869L38.9827 40.6263C38.9884 40.63 38.9941 40.6337 38.9999 40.6373L39.5261 39.7869ZM45.1893 38.3205L44.3277 37.813L44.3257 37.8164L45.1893 38.3205ZM46.5901 35.9426L47.4517 36.4502C47.4577 36.44 47.4635 36.4298 47.4691 36.4195L46.5901 35.9426ZM47.4866 31.3641C47.2016 30.8911 46.587 30.7387 46.114 31.0238C45.641 31.3089 45.4886 31.9234 45.7737 32.3964L47.4866 31.3641ZM47.4726 31.3415C47.0305 30.6502 46.3755 29.914 45.4827 29.434L44.5357 31.1956C45.0437 31.4687 45.4694 31.9214 45.7877 32.4191L47.4726 31.3415ZM45.453 29.4186C45.1477 29.2675 44.9101 29.0068 44.6266 28.5331L42.9104 29.5601C43.2673 30.1564 43.7502 30.8073 44.5655 31.211L45.453 29.4186ZM44.6265 28.5328C43.8983 27.3169 44.3217 25.688 45.5601 24.9522L44.5385 23.2328C42.3749 24.5183 41.5976 27.3679 42.9106 29.5603L44.6265 28.5328ZM45.5408 24.9634C48.0397 23.5529 48.8309 20.4095 47.3907 17.9754L45.6694 18.9937C46.5506 20.4832 46.0611 22.3731 44.5577 23.2217L45.5408 24.9634ZM47.3976 17.9871L46.0568 15.6488L44.3218 16.6437L45.6626 18.982L47.3976 17.9871ZM46.0538 15.6436C44.6407 13.2131 41.5313 12.3441 39.0644 13.7752L40.068 15.5052C41.5633 14.6377 43.4567 15.1558 44.3248 16.6489L46.0538 15.6436ZM39.0909 13.7604C37.8023 14.4564 36.1249 13.9864 35.3786 12.7547L33.6681 13.7911C34.9629 15.9281 37.8081 16.7264 40.0414 15.5201L39.0909 13.7604ZM35.3895 12.7731C35.1393 12.3396 35.0375 11.9419 35.0608 11.5962L33.0653 11.4619C33.0086 12.3053 33.267 13.0965 33.6572 13.7727L35.3895 12.7731ZM35.0601 11.6065C35.1399 10.5788 34.8197 9.63931 34.378 8.91035L32.6675 9.94676C32.9462 10.4068 33.1063 10.9337 33.0661 11.4516L35.0601 11.6065ZM34.3793 8.91239C33.4731 7.40873 31.8206 6.36768 29.9608 6.36768V8.36768C31.0626 8.36768 32.0916 8.99118 32.6663 9.94472L34.3793 8.91239ZM29.9608 6.36768H27.1392V8.36768H29.9608V6.36768ZM27.1121 6.36804C25.3088 6.41697 23.6562 7.39323 22.7407 8.91239L24.4537 9.94472C25.019 9.00668 26.0479 8.39765 27.1663 8.36731L27.1121 6.36804ZM22.7547 8.88976C22.2699 9.64785 21.9867 10.5857 22.0382 11.5808L24.0355 11.4774C24.007 10.9268 24.164 10.3982 24.4396 9.96735L22.7547 8.88976ZM22.0391 11.5962C22.0624 11.9419 21.9606 12.3396 21.7105 12.7731L23.4427 13.7727C23.833 13.0965 24.0914 12.3053 24.0346 11.4619L22.0391 11.5962ZM21.7214 12.7547C20.973 13.9897 19.2965 14.4528 18.0332 13.7626L17.0743 15.5178C19.293 16.73 22.139 15.9248 23.4319 13.7911L21.7214 12.7547ZM18.0518 13.7731C15.5652 12.3449 12.4828 13.2152 11.05 15.6371L12.7713 16.6554C13.6598 15.1536 15.5402 14.6369 17.0557 15.5074L18.0518 13.7731ZM11.0431 15.6488L9.70234 17.9871L11.4374 18.982L12.7781 16.6437L11.0431 15.6488ZM9.70536 17.9819C8.29271 20.4115 9.07915 23.5494 11.5554 24.9612L12.546 23.2238C11.06 22.3766 10.5657 20.4812 11.4343 18.9872L9.70536 17.9819ZM11.5399 24.9522C12.7783 25.688 13.2049 27.3211 12.4891 28.5403L14.2138 29.5529C15.4991 27.3637 14.725 24.5183 12.5615 23.2328L11.5399 24.9522ZM12.5076 28.51C12.1936 29.0038 11.9551 29.2661 11.647 29.4186L12.5344 31.211C13.347 30.8086 13.8289 30.1594 14.1953 29.5831L12.5076 28.51ZM11.6065 29.4398C10.7773 29.8987 10.0302 30.6247 9.60938 31.4061L11.3702 32.3545C11.5898 31.9469 12.0434 31.4839 12.5749 31.1898L11.6065 29.4398ZM9.63332 31.3641C8.68614 32.9358 8.76075 34.8716 9.66286 36.441L11.3968 35.4442C10.8181 34.4375 10.8126 33.282 11.3463 32.3964L9.63332 31.3641ZM9.66505 36.4447L11.0458 38.8227L12.7754 37.8184L11.3946 35.4405L9.66505 36.4447ZM11.047 38.8247C11.9648 40.3968 13.6726 41.3814 15.4726 41.3814V39.3814C14.391 39.3814 13.3372 38.7807 12.7742 37.8164L11.047 38.8247ZM15.4726 41.3814C16.3217 41.3814 17.3076 41.1401 18.1201 40.6373L17.0675 38.9366C16.5993 39.2264 15.9843 39.3814 15.4726 39.3814V41.3814ZM18.1524 40.6164C18.4273 40.4313 18.8056 40.3312 19.3548 40.3312V38.3312C18.5832 38.3312 17.7609 38.4688 17.0353 38.9575L18.1524 40.6164ZM19.3548 40.3312C20.7887 40.3312 22.0081 41.5376 22.0371 42.9581L24.0367 42.9173C23.9856 40.4142 21.8831 38.3312 19.3548 38.3312V40.3312ZM22.0369 42.9377C22.0369 45.7938 24.3509 48 27.1992 48V46C25.4049 46 24.0369 44.6394 24.0369 42.9377H22.0369ZM27.1992 48H29.9207V46H27.1992V48ZM29.9207 48C32.7523 48 35.0631 45.7907 35.0631 42.9377H33.0631C33.0631 44.6425 31.6918 46 29.9207 46V48ZM35.0626 42.9683C35.1064 41.5377 36.3333 40.3312 37.7652 40.3312V38.3312C35.2348 38.3312 33.1398 40.4141 33.0635 42.9071L35.0626 42.9683ZM37.7652 40.3312C38.2857 40.3312 38.6763 40.428 38.9827 40.6263L40.0696 38.9475C39.3355 38.4722 38.5253 38.3312 37.7652 38.3312V40.3312ZM38.9999 40.6373C39.8104 41.1389 40.7758 41.3814 41.6473 41.3814V39.3814C41.1181 39.3814 40.5226 39.2276 40.0524 38.9366L38.9999 40.6373ZM41.6473 41.3814C43.43 41.3814 45.1365 40.3945 46.0529 38.8247L44.3257 37.8164C43.7614 38.7831 42.7062 39.3814 41.6473 39.3814V41.3814ZM46.051 38.8281L47.4517 36.4502L45.7285 35.435L44.3277 37.813L46.051 38.8281ZM47.4691 36.4195C48.3278 34.8369 48.4411 32.9478 47.4866 31.3641L45.7737 32.3964C46.3001 33.2699 46.2933 34.3929 45.7112 35.4657L47.4691 36.4195Z" fill="url(#paint1_linear)" mask="url(#path-3-outside-1)"/>
</g>
<g filter="url(#filter2_bd)">
<path d="M28.5846 32.6374C25.4428 32.6374 22.9014 30.1603 22.9014 27.0492C22.9014 23.9381 25.4428 21.4412 28.5846 21.4412C31.7263 21.4412 34.2077 23.9381 34.2077 27.0492C34.2077 30.1603 31.7263 32.6374 28.5846 32.6374Z" fill="url(#paint2_linear)"/>
<path d="M28.5846 32.5374C25.4962 32.5374 23.0014 30.1033 23.0014 27.0492C23.0014 23.9947 25.4966 21.5412 28.5846 21.5412C31.6711 21.5412 34.1077 23.9933 34.1077 27.0492C34.1077 30.1047 31.6716 32.5374 28.5846 32.5374Z" stroke="url(#paint3_linear)" stroke-opacity="0.5" stroke-width="0.2"/>
</g>
</g>
<defs>
<filter id="filter0_f" x="-7.62012" y="-4.89984" width="47.8249" height="48.9853" filterUnits="userSpaceOnUse" color-interpolation-filters="sRGB">
<feFlood flood-opacity="0" result="BackgroundImageFix"/>
<feBlend mode="normal" in="SourceGraphic" in2="BackgroundImageFix" result="shape"/>
<feGaussianBlur stdDeviation="8" result="effect1_foregroundBlur"/>
</filter>
<filter id="filter1_b" x="-15.0459" y="-17.6323" width="87.2046" height="89.6323" filterUnits="userSpaceOnUse" color-interpolation-filters="sRGB">
<feFlood flood-opacity="0" result="BackgroundImageFix"/>
<feGaussianBlur in="BackgroundImage" stdDeviation="12"/>
<feComposite in2="SourceAlpha" operator="in" result="effect1_backgroundBlur"/>
<feBlend mode="normal" in="SourceGraphic" in2="effect1_backgroundBlur" result="shape"/>
</filter>
<filter id="filter2_bd" x="7.90137" y="6.44122" width="41.3064" height="41.1961" filterUnits="userSpaceOnUse" color-interpolation-filters="sRGB">
<feFlood flood-opacity="0" result="BackgroundImageFix"/>
<feGaussianBlur in="BackgroundImage" stdDeviation="7.5"/>
<feComposite in2="SourceAlpha" operator="in" result="effect1_backgroundBlur"/>
<feColorMatrix in="SourceAlpha" type="matrix" values="0 0 0 0 0 0 0 0 0 0 0 0 0 0 0 0 0 0 127 0"/>
<feOffset dx="5" dy="5"/>
<feGaussianBlur stdDeviation="5"/>
<feColorMatrix type="matrix" values="0 0 0 0 0.845833 0 0 0 0 0.406 0 0 0 0 0 0 0 0 0.6 0"/>
<feBlend mode="normal" in2="effect1_backgroundBlur" result="effect2_dropShadow"/>
<feBlend mode="normal" in="SourceGraphic" in2="effect2_dropShadow" result="shape"/>
</filter>
<linearGradient id="paint0_linear" x1="32.8217" y1="0.380114" x2="-3.40556" y2="33.8048" gradientUnits="userSpaceOnUse">
<stop stop-color="#FF9E00"/>
<stop offset="1" stop-color="#FFEB6B"/>
</linearGradient>
<linearGradient id="paint1_linear" x1="15.8951" y1="14.5789" x2="41.284" y2="41.7266" gradientUnits="userSpaceOnUse">
<stop offset="0.109375" stop-opacity="0"/>
<stop offset="1"/>
</linearGradient>
<linearGradient id="paint2_linear" x1="33.4061" y1="23.463" x2="20.8122" y2="23.8777" gradientUnits="userSpaceOnUse">
<stop stop-color="white"/>
<stop offset="1" stop-color="white" stop-opacity="0.4"/>
</linearGradient>
<linearGradient id="paint3_linear" x1="24.1193" y1="25.197" x2="33.72" y2="25.2505" gradientUnits="userSpaceOnUse">
<stop stop-color="white"/>
<stop offset="1" stop-color="white" stop-opacity="0"/>
</linearGradient>
<clipPath id="clip0">
<rect width="50" height="50" fill="white"/>
</clipPath>
</defs>
</svg>
