<svg width="50" height="50" viewBox="0 0 50 50" fill="none" xmlns="http://www.w3.org/2000/svg">
<g clip-path="url(#clip0)">
<path d="M30.1104 3.74501C28.0656 2.67476 25.6811 2.49027 23.5084 3.22485L9.17642 7.08828C6.91443 7.54913 4.94105 8.90837 3.7021 10.8638C2.63825 12.921 2.45486 15.3199 3.18914 17.5211L7.02936 31.9395C7.48743 34.2151 8.83851 36.2004 10.7822 37.4468C12.8271 38.5171 15.2116 38.7015 17.3996 37.9628L31.7316 34.0994C33.9782 33.6427 35.9669 32.2793 37.2059 30.3239C38.2544 28.2708 38.4531 25.8678 37.7189 23.6666L33.8786 9.24819C33.4052 6.9767 32.0541 4.99143 30.1104 3.74501" fill="url(#paint0_linear)" fill-opacity="0.8"/>
<path d="M30.1104 3.74501C28.0656 2.67476 25.6811 2.49027 23.5084 3.22485L9.17642 7.08828C6.91443 7.54913 4.94105 8.90837 3.7021 10.8638C2.63825 12.921 2.45486 15.3199 3.18914 17.5211L7.02936 31.9395C7.48743 34.2151 8.83851 36.2004 10.7822 37.4468C12.8271 38.5171 15.2116 38.7015 17.3996 37.9628L31.7316 34.0994C33.9782 33.6427 35.9669 32.2793 37.2059 30.3239C38.2544 28.2708 38.4531 25.8678 37.7189 23.6666L33.8786 9.24819C33.4052 6.9767 32.0541 4.99143 30.1104 3.74501" fill="white" fill-opacity="0.25"/>
<g opacity="0.5" filter="url(#filter0_f)">
<path d="M22.8749 7.80846L12.0668 10.8415C8.14637 11.9416 6.42679 14.6128 7.39151 18.0922L10.6589 29.8768C11.6395 33.4132 14.4724 34.7577 18.3928 33.6576L29.201 30.6246C33.1846 29.5067 34.8523 26.8992 33.8718 23.3627L30.6044 11.5782C29.6397 8.09876 26.8585 6.69058 22.8749 7.80846Z" fill="#EECD58"/>
</g>
<g filter="url(#filter1_b)">
<mask id="path-3-outside-1" maskUnits="userSpaceOnUse" x="11.4072" y="10.2209" width="37" height="37" fill="black">
<rect fill="white" x="11.4072" y="10.2209" width="37" height="37"/>
<path d="M44.5425 13.6536C42.6949 11.9512 40.2429 11.0826 37.7564 11.2389H21.6286C19.1249 11.0826 16.6729 11.9512 14.8253 13.6536C13.1331 15.5123 12.2697 17.9791 12.4251 20.498V36.723C12.2697 39.2419 13.1331 41.7086 14.8253 43.5674C16.6729 45.2698 19.1249 46.1384 21.6286 45.982H37.7564C40.2429 46.1384 42.7122 45.2698 44.5598 43.5674C46.2348 41.7086 47.1154 39.2419 46.96 36.723V20.498C47.0981 17.9791 46.2348 15.5123 44.5425 13.6536"/>
</mask>
<path d="M44.5425 13.6536C42.6949 11.9512 40.2429 11.0826 37.7564 11.2389H21.6286C19.1249 11.0826 16.6729 11.9512 14.8253 13.6536C13.1331 15.5123 12.2697 17.9791 12.4251 20.498V36.723C12.2697 39.2419 13.1331 41.7086 14.8253 43.5674C16.6729 45.2698 19.1249 46.1384 21.6286 45.982H37.7564C40.2429 46.1384 42.7122 45.2698 44.5598 43.5674C46.2348 41.7086 47.1154 39.2419 46.96 36.723V20.498C47.0981 17.9791 46.2348 15.5123 44.5425 13.6536" fill="#FFB800" fill-opacity="0.8"/>
<path d="M43.8649 14.389C44.2711 14.7632 44.9037 14.7373 45.278 14.3312C45.6522 13.925 45.6263 13.2924 45.2202 12.9182L43.8649 14.389ZM37.7564 11.2389V12.2389C37.7774 12.2389 37.7983 12.2383 37.8192 12.2369L37.7564 11.2389ZM21.6286 11.2389L21.5663 12.237C21.5871 12.2383 21.6079 12.2389 21.6286 12.2389L21.6286 11.2389ZM14.8253 13.6536L14.1476 12.9182C14.1261 12.938 14.1055 12.9587 14.0858 12.9804L14.8253 13.6536ZM12.4251 20.498H13.4251C13.4251 20.4774 13.4245 20.4569 13.4232 20.4364L12.4251 20.498ZM12.4251 36.723L13.4232 36.7846C13.4245 36.7641 13.4251 36.7435 13.4251 36.723H12.4251ZM14.8253 43.5674L14.0858 44.2406C14.1055 44.2622 14.1261 44.283 14.1476 44.3028L14.8253 43.5674ZM21.6286 45.982V44.982C21.6079 44.982 21.5871 44.9827 21.5663 44.984L21.6286 45.982ZM37.7564 45.982L37.8192 44.984C37.7983 44.9827 37.7774 44.982 37.7564 44.982V45.982ZM44.5598 43.5674L45.2374 44.3028C45.2602 44.2818 45.282 44.2598 45.3027 44.2368L44.5598 43.5674ZM46.96 36.723H45.96C45.96 36.7435 45.9606 36.7641 45.9619 36.7846L46.96 36.723ZM46.96 20.498L45.9615 20.4432C45.9605 20.4614 45.96 20.4797 45.96 20.498H46.96ZM45.282 12.9804C44.9102 12.572 44.2777 12.5423 43.8693 12.9141C43.4609 13.2859 43.4313 13.9184 43.8031 14.3268L45.282 12.9804ZM45.2202 12.9182C43.1726 11.0315 40.4534 10.0674 37.6937 10.2409L37.8192 12.2369C40.0325 12.0978 42.2173 12.8708 43.8649 14.389L45.2202 12.9182ZM37.7564 10.2389H21.6286V12.2389H37.7564V10.2389ZM21.691 10.2409C18.9153 10.0675 16.196 11.0308 14.1476 12.9182L15.5029 14.389C17.1498 12.8715 19.3344 12.0976 21.5663 12.237L21.691 10.2409ZM14.0858 12.9804C12.2103 15.0404 11.2551 17.7728 11.427 20.5595L13.4232 20.4364C13.2843 18.1854 14.0558 15.9842 15.5647 14.3268L14.0858 12.9804ZM11.4251 20.498V36.723H13.4251V20.498H11.4251ZM11.427 36.6614C11.2551 39.4482 12.2103 42.1805 14.0858 44.2406L15.5647 42.8942C14.0558 41.2368 13.2843 39.0356 13.4232 36.7846L11.427 36.6614ZM14.1476 44.3028C16.196 46.1902 18.9153 47.1534 21.691 46.9801L21.5663 44.984C19.3344 45.1234 17.1498 44.3494 15.5029 42.832L14.1476 44.3028ZM21.6286 46.982H37.7564V44.982H21.6286V46.982ZM37.6937 46.9801C40.4517 47.1535 43.1886 46.1906 45.2374 44.3028L43.8822 42.832C42.2358 44.349 40.0342 45.1233 37.8192 44.984L37.6937 46.9801ZM45.3027 44.2368C47.1546 42.1816 48.1303 39.4525 47.9581 36.6614L45.9619 36.7846C46.1005 39.0313 45.3149 41.2356 43.8169 42.898L45.3027 44.2368ZM47.96 36.723V20.498H45.96V36.723H47.96ZM47.9585 20.5527C48.1111 17.7708 47.1576 15.0406 45.282 12.9804L43.8031 14.3268C45.3119 15.9841 46.0852 18.1874 45.9615 20.4432L47.9585 20.5527Z" fill="url(#paint1_linear)" mask="url(#path-3-outside-1)"/>
</g>
<g filter="url(#filter2_bd)">
<mask id="path-5-inside-2" fill="white">
<path d="M39.5509 25.3106L27.9299 37.0364C27.3256 37.627 26.5313 37.9571 25.7024 37.9571H21.6446C21.4201 37.9571 21.2129 37.8702 21.0575 37.7139C20.9021 37.5575 20.833 37.3491 20.833 37.1233L20.9366 33.0062C20.9539 32.1897 21.282 31.4254 21.8518 30.8521L30.0884 22.5659C30.2265 22.4269 30.4682 22.4269 30.6064 22.5659L33.49 25.4496C33.68 25.6407 33.9563 25.7623 34.2498 25.7623C34.8887 25.7623 35.3895 25.2411 35.3895 24.6157C35.3895 24.3031 35.2686 24.0251 35.0787 23.8166C35.0268 23.7472 32.2813 21.0025 32.2813 21.0025C32.1086 20.8287 32.1086 20.5334 32.2813 20.3597L33.4382 19.1784C34.5088 18.1014 36.2356 18.1014 37.3062 19.1784L39.5509 21.4367C40.6042 22.4964 40.6042 24.2336 39.5509 25.3106"/>
</mask>
<path d="M39.5509 25.3106L27.9299 37.0364C27.3256 37.627 26.5313 37.9571 25.7024 37.9571H21.6446C21.4201 37.9571 21.2129 37.8702 21.0575 37.7139C20.9021 37.5575 20.833 37.3491 20.833 37.1233L20.9366 33.0062C20.9539 32.1897 21.282 31.4254 21.8518 30.8521L30.0884 22.5659C30.2265 22.4269 30.4682 22.4269 30.6064 22.5659L33.49 25.4496C33.68 25.6407 33.9563 25.7623 34.2498 25.7623C34.8887 25.7623 35.3895 25.2411 35.3895 24.6157C35.3895 24.3031 35.2686 24.0251 35.0787 23.8166C35.0268 23.7472 32.2813 21.0025 32.2813 21.0025C32.1086 20.8287 32.1086 20.5334 32.2813 20.3597L33.4382 19.1784C34.5088 18.1014 36.2356 18.1014 37.3062 19.1784L39.5509 21.4367C40.6042 22.4964 40.6042 24.2336 39.5509 25.3106" fill="url(#paint2_linear)"/>
<path d="M27.9299 37.0364L28.0697 37.1795L28.072 37.1772L27.9299 37.0364ZM20.833 37.1233L20.633 37.1182V37.1233H20.833ZM20.9366 33.0062L21.1366 33.0112L21.1366 33.0104L20.9366 33.0062ZM21.8518 30.8521L21.9936 30.9931L21.9936 30.9931L21.8518 30.8521ZM30.0884 22.5659L29.9465 22.4249L29.9465 22.4249L30.0884 22.5659ZM30.6064 22.5659L30.4645 22.7069L30.465 22.7073L30.6064 22.5659ZM33.49 25.4496L33.6319 25.3086L33.6315 25.3082L33.49 25.4496ZM35.0787 23.8166L34.9183 23.9362L34.9242 23.9441L34.9308 23.9514L35.0787 23.8166ZM32.2813 21.0025L32.1395 21.1435L32.1399 21.1439L32.2813 21.0025ZM32.2813 20.3597L32.4232 20.5007L32.4242 20.4997L32.2813 20.3597ZM33.4382 19.1784L33.2964 19.0374L33.2954 19.0385L33.4382 19.1784ZM37.3062 19.1784L37.1643 19.3194L37.3062 19.1784ZM39.5509 21.4367L39.6928 21.2958L39.6928 21.2958L39.5509 21.4367ZM39.4089 25.1698L27.7879 36.8956L28.072 37.1772L39.693 25.4514L39.4089 25.1698ZM27.7901 36.8934C27.222 37.4486 26.4774 37.7571 25.7024 37.7571V38.1571C26.5851 38.1571 27.4291 37.8055 28.0697 37.1794L27.7901 36.8934ZM25.7024 37.7571H21.6446V38.1571H25.7024V37.7571ZM21.6446 37.7571C21.4732 37.7571 21.3171 37.6914 21.1993 37.5729L20.9156 37.8549C21.1087 38.0491 21.367 38.1571 21.6446 38.1571V37.7571ZM21.1993 37.5729C21.0888 37.4617 21.033 37.3081 21.033 37.1233H20.633C20.633 37.3901 20.7154 37.6534 20.9156 37.8549L21.1993 37.5729ZM21.0329 37.1283L21.1365 33.0112L20.7367 33.0012L20.6331 37.1182L21.0329 37.1283ZM21.1366 33.0104C21.1527 32.2456 21.4598 31.5301 21.9936 30.9931L21.7099 30.7111C21.1041 31.3206 20.755 32.1339 20.7367 33.002L21.1366 33.0104ZM21.9936 30.9931L30.2302 22.7069L29.9465 22.4249L21.7099 30.7111L21.9936 30.9931ZM30.2302 22.7069C30.2901 22.6466 30.4046 22.6466 30.4645 22.7069L30.7482 22.4249C30.5319 22.2073 30.1629 22.2073 29.9465 22.4249L30.2302 22.7069ZM30.465 22.7073L33.3486 25.591L33.6315 25.3082L30.7478 22.4245L30.465 22.7073ZM33.3482 25.5906C33.5751 25.8189 33.9022 25.9623 34.2498 25.9623V25.5623C34.0103 25.5623 33.7848 25.4625 33.6319 25.3086L33.3482 25.5906ZM34.2498 25.9623C35.0023 25.9623 35.5895 25.3485 35.5895 24.6157H35.1895C35.1895 25.1338 34.7752 25.5623 34.2498 25.5623V25.9623ZM35.5895 24.6157C35.5895 24.2499 35.4477 23.9247 35.2265 23.6819L34.9308 23.9514C35.0895 24.1255 35.1895 24.3562 35.1895 24.6157H35.5895ZM35.239 23.6971C35.2262 23.6799 35.2002 23.653 35.183 23.6351C35.1593 23.6104 35.1266 23.5768 35.0865 23.5358C35.006 23.4537 34.8942 23.3405 34.7618 23.2068C34.4969 22.9395 34.1487 22.5897 33.8022 22.2423C33.4557 21.8948 33.1108 21.5495 32.8526 21.291C32.7235 21.1618 32.616 21.0543 32.5408 20.9791C32.5032 20.9415 32.4737 20.912 32.4536 20.8919C32.4435 20.8818 32.4358 20.8741 32.4306 20.8689C32.428 20.8663 32.426 20.8643 32.4247 20.863C32.4241 20.8623 32.4236 20.8618 32.4232 20.8615C32.4231 20.8613 32.4229 20.8612 32.4229 20.8611C32.4228 20.8611 32.4228 20.8611 32.4228 20.861C32.4227 20.861 32.4227 20.861 32.2813 21.0025C32.1399 21.1439 32.1399 21.1439 32.14 21.1439C32.14 21.144 32.14 21.144 32.14 21.144C32.1401 21.1441 32.1403 21.1442 32.1404 21.1444C32.1408 21.1447 32.1413 21.1452 32.1419 21.1459C32.1432 21.1472 32.1452 21.1492 32.1478 21.1518C32.153 21.157 32.1607 21.1647 32.1708 21.1747C32.1909 21.1948 32.2204 21.2244 32.258 21.2619C32.3331 21.3371 32.4406 21.4446 32.5696 21.5738C32.8278 21.8321 33.1726 22.1773 33.5189 22.5247C33.8653 22.8721 34.2132 23.2215 34.4777 23.4884C34.6099 23.6219 34.7211 23.7345 34.8007 23.8157C34.8406 23.8564 34.8722 23.8889 34.8944 23.9121C34.9231 23.942 34.9246 23.9447 34.9183 23.9362L35.239 23.6971ZM32.4232 20.8615C32.328 20.7658 32.328 20.5964 32.4232 20.5007L32.1395 20.2187C31.8893 20.4704 31.8893 20.8917 32.1395 21.1435L32.4232 20.8615ZM32.4242 20.4997L33.5811 19.3184L33.2954 19.0385L32.1384 20.2198L32.4242 20.4997ZM33.5801 19.3194C34.5725 18.3211 36.1719 18.3211 37.1643 19.3194L37.448 19.0374C36.2992 17.8817 34.4452 17.8817 33.2964 19.0374L33.5801 19.3194ZM37.1643 19.3194L39.4091 21.5777L39.6928 21.2958L37.448 19.0374L37.1643 19.3194ZM39.4091 21.5777C40.3842 22.5588 40.3859 24.1708 39.4079 25.1708L39.6939 25.4504C40.8226 24.2963 40.8242 22.434 39.6928 21.2958L39.4091 21.5777Z" fill="url(#paint3_linear)" fill-opacity="0.5" mask="url(#path-5-inside-2)"/>
</g>
</g>
<defs>
<filter id="filter0_f" x="-10.8716" y="-10.5676" width="63.0176" height="62.5995" filterUnits="userSpaceOnUse" color-interpolation-filters="sRGB">
<feFlood flood-opacity="0" result="BackgroundImageFix"/>
<feBlend mode="normal" in="SourceGraphic" in2="BackgroundImageFix" result="shape"/>
<feGaussianBlur stdDeviation="9" result="effect1_foregroundBlur"/>
</filter>
<filter id="filter1_b" x="-12.5928" y="-13.7791" width="84.5704" height="84.7791" filterUnits="userSpaceOnUse" color-interpolation-filters="sRGB">
<feFlood flood-opacity="0" result="BackgroundImageFix"/>
<feGaussianBlur in="BackgroundImage" stdDeviation="12"/>
<feComposite in2="SourceAlpha" operator="in" result="effect1_backgroundBlur"/>
<feBlend mode="normal" in="SourceGraphic" in2="effect1_backgroundBlur" result="shape"/>
</filter>
<filter id="filter2_bd" x="5.83301" y="3.37067" width="49.5079" height="49.5864" filterUnits="userSpaceOnUse" color-interpolation-filters="sRGB">
<feFlood flood-opacity="0" result="BackgroundImageFix"/>
<feGaussianBlur in="BackgroundImage" stdDeviation="7.5"/>
<feComposite in2="SourceAlpha" operator="in" result="effect1_backgroundBlur"/>
<feColorMatrix in="SourceAlpha" type="matrix" values="0 0 0 0 0 0 0 0 0 0 0 0 0 0 0 0 0 0 127 0"/>
<feOffset dx="5" dy="5"/>
<feGaussianBlur stdDeviation="5"/>
<feColorMatrix type="matrix" values="0 0 0 0 0.845833 0 0 0 0 0.406 0 0 0 0 0 0 0 0 0.6 0"/>
<feBlend mode="normal" in2="effect1_backgroundBlur" result="effect2_dropShadow"/>
<feBlend mode="normal" in="SourceGraphic" in2="effect2_dropShadow" result="shape"/>
</filter>
<linearGradient id="paint0_linear" x1="32.3351" y1="-1.80149" x2="7.27113" y2="40.9555" gradientUnits="userSpaceOnUse">
<stop stop-color="#FF9E00"/>
<stop offset="1" stop-color="#FFEB6B"/>
</linearGradient>
<linearGradient id="paint1_linear" x1="17.9103" y1="15.2728" x2="40.1234" y2="42.6191" gradientUnits="userSpaceOnUse">
<stop stop-opacity="0"/>
<stop offset="1"/>
</linearGradient>
<linearGradient id="paint2_linear" x1="38.9578" y1="21.9076" x2="17.2277" y2="22.6132" gradientUnits="userSpaceOnUse">
<stop stop-color="white"/>
<stop offset="1" stop-color="white" stop-opacity="0.4"/>
</linearGradient>
<linearGradient id="paint3_linear" x1="22.9344" y1="24.941" x2="39.4993" y2="25.032" gradientUnits="userSpaceOnUse">
<stop stop-color="white"/>
<stop offset="1" stop-color="white" stop-opacity="0"/>
</linearGradient>
<clipPath id="clip0">
<rect width="50" height="50" fill="white"/>
</clipPath>
</defs>
</svg>
