<svg width="50" height="50" viewBox="0 0 50 50" fill="none" xmlns="http://www.w3.org/2000/svg">
<g clip-path="url(#clip0)">
<path d="M16.5365 15.3852C7.52809 15.3852 1.00049 22.4926 1.00049 30.3798C1.00049 32.8988 1.76023 35.4929 3.09366 37.862C3.34174 38.2519 3.37275 38.7467 3.2022 39.2116L2.16336 42.5703C1.93079 43.38 2.64402 43.9798 3.43477 43.7399L6.56678 42.8402C7.41955 42.5703 8.08627 42.9152 8.87857 43.38C11.1423 44.6696 13.9627 45.3293 16.5055 45.3293C24.1959 45.3293 32.0105 39.5864 32.0105 30.3348C32.0105 22.3577 25.3433 15.3852 16.5365 15.3852" fill="url(#paint0_linear)" fill-opacity="0.8"/>
<path d="M16.5365 15.3852C7.52809 15.3852 1.00049 22.4926 1.00049 30.3798C1.00049 32.8988 1.76023 35.4929 3.09366 37.862C3.34174 38.2519 3.37275 38.7467 3.2022 39.2116L2.16336 42.5703C1.93079 43.38 2.64402 43.9798 3.43477 43.7399L6.56678 42.8402C7.41955 42.5703 8.08627 42.9152 8.87857 43.38C11.1423 44.6696 13.9627 45.3293 16.5055 45.3293C24.1959 45.3293 32.0105 39.5864 32.0105 30.3348C32.0105 22.3577 25.3433 15.3852 16.5365 15.3852" fill="white" fill-opacity="0.25"/>
<g opacity="0.5" filter="url(#filter0_f)">
<path d="M6.63485 30.5293C6.63485 35.8788 11.118 40.2133 16.6485 40.2133C22.179 40.2133 26.6621 35.8788 26.6621 30.5293C26.6621 25.1818 22.179 20.8453 16.6485 20.8453C11.118 20.8453 6.63485 25.1818 6.63485 30.5293Z" fill="#EECD58"/>
</g>
<g filter="url(#filter1_b)">
<mask id="path-3-outside-1" maskUnits="userSpaceOnUse" x="7" y="2.67065" width="42" height="41" fill="black">
<rect fill="white" x="7" y="2.67065" width="42" height="41"/>
<path d="M28.1754 3.67065C39.6705 3.67065 48 12.74 48 22.8043C48 26.0188 47.0305 29.3289 45.329 32.352C45.0125 32.8495 44.9729 33.4809 45.1905 34.074L46.5161 38.36C46.8129 39.3932 45.9028 40.1586 44.8938 39.8524L40.8972 38.7044C39.809 38.36 38.9583 38.8001 37.9472 39.3932C35.0586 41.0387 31.4597 41.8806 28.215 41.8806C18.4017 41.8806 8.43002 34.5524 8.43002 22.7469C8.43002 12.5678 16.9376 3.67065 28.1754 3.67065"/>
</mask>
<path d="M28.1754 3.67065C39.6705 3.67065 48 12.74 48 22.8043C48 26.0188 47.0305 29.3289 45.329 32.352C45.0125 32.8495 44.9729 33.4809 45.1905 34.074L46.5161 38.36C46.8129 39.3932 45.9028 40.1586 44.8938 39.8524L40.8972 38.7044C39.809 38.36 38.9583 38.8001 37.9472 39.3932C35.0586 41.0387 31.4597 41.8806 28.215 41.8806C18.4017 41.8806 8.43002 34.5524 8.43002 22.7469C8.43002 12.5678 16.9376 3.67065 28.1754 3.67065" fill="#FFB800" fill-opacity="0.8"/>
<path d="M28.1754 4.67065C27.6232 4.67065 27.1754 4.22294 27.1754 3.67065C27.1754 3.11837 27.6232 2.67065 28.1754 2.67065V4.67065ZM45.329 32.352L46.2005 32.8425C46.1916 32.8582 46.1824 32.8737 46.1727 32.8889L45.329 32.352ZM45.1905 34.074L46.1293 33.7296C46.1353 33.7458 46.1408 33.7621 46.1459 33.7786L45.1905 34.074ZM46.5161 38.36L47.4715 38.0645C47.4735 38.071 47.4754 38.0774 47.4773 38.0839L46.5161 38.36ZM44.8938 39.8524L45.1698 38.8913C45.1746 38.8926 45.1793 38.894 45.1841 38.8955L44.8938 39.8524ZM40.8972 38.7044L40.6211 39.6655C40.6125 39.6631 40.604 39.6605 40.5954 39.6578L40.8972 38.7044ZM37.9472 39.3932L38.4533 40.2558L38.4422 40.2621L37.9472 39.3932ZM28.1754 2.67065C28.7277 2.67065 29.1754 3.11837 29.1754 3.67065C29.1754 4.22294 28.7277 4.67065 28.1754 4.67065V2.67065ZM28.1754 2.67065C40.2244 2.67065 49 12.1894 49 22.8043H47C47 13.2907 39.1166 4.67065 28.1754 4.67065V2.67065ZM49 22.8043C49 26.2166 47.9725 29.6941 46.2005 32.8425L44.4576 31.8615C46.0885 28.9637 47 25.821 47 22.8043H49ZM46.1727 32.8889C46.0482 33.0846 46.0021 33.3829 46.1293 33.7296L44.2517 34.4185C43.9437 33.5789 43.9768 32.6144 44.4854 31.8152L46.1727 32.8889ZM46.1459 33.7786L47.4715 38.0645L45.5608 38.6555L44.2352 34.3695L46.1459 33.7786ZM47.4773 38.0839C47.7279 38.9564 47.4738 39.8078 46.8601 40.3549C46.2632 40.887 45.4148 41.0555 44.6034 40.8093L45.1841 38.8955C45.3818 38.9555 45.4929 38.8943 45.5292 38.862C45.5488 38.8446 45.5603 38.8256 45.5667 38.8028C45.5727 38.7814 45.5817 38.7291 45.555 38.6361L47.4773 38.0839ZM44.6177 40.8135L40.6211 39.6655L41.1733 37.7433L45.1698 38.8913L44.6177 40.8135ZM40.5954 39.6578C39.9731 39.4608 39.4853 39.6502 38.4533 40.2557L37.4412 38.5307C38.4312 37.9499 39.6449 37.2592 41.1989 37.751L40.5954 39.6578ZM38.4422 40.2621C35.3863 42.0029 31.6132 42.8806 28.215 42.8806V40.8806C31.3062 40.8806 34.731 40.0745 37.4523 38.5243L38.4422 40.2621ZM28.215 42.8806C17.9629 42.8806 7.43002 35.2118 7.43002 22.7469H9.43002C9.43002 33.893 18.8404 40.8806 28.215 40.8806V42.8806ZM7.43002 22.7469C7.43002 12.0062 16.3947 2.67065 28.1754 2.67065V4.67065C17.4805 4.67065 9.43002 13.1294 9.43002 22.7469H7.43002Z" fill="url(#paint1_linear)" mask="url(#path-3-outside-1)"/>
</g>
<g filter="url(#filter2_bd)">
<mask id="path-5-inside-2" fill="white">
<path fill-rule="evenodd" clip-rule="evenodd" d="M37.5 25C38.8672 25 40 23.8672 40 22.5C40 21.1133 38.8867 20 37.5 20C36.1133 20 35 21.1133 35 22.5C35 23.8672 36.1133 24.9805 37.5 25ZM28.5 25C29.8867 24.9805 31 23.8672 31 22.4806C31 21.1135 29.8672 19.9807 28.5 20.0002C27.1133 20.0002 26 21.1135 26 22.5001C26 23.8672 27.1133 25 28.5 25ZM22 22.5C22 23.8672 20.8867 25 19.5 25C18.1133 25 17 23.8672 17 22.5C17 21.1133 18.1133 20 19.5 20C20.8867 20 22 21.1133 22 22.5Z"/>
</mask>
<path fill-rule="evenodd" clip-rule="evenodd" d="M37.5 25C38.8672 25 40 23.8672 40 22.5C40 21.1133 38.8867 20 37.5 20C36.1133 20 35 21.1133 35 22.5C35 23.8672 36.1133 24.9805 37.5 25ZM28.5 25C29.8867 24.9805 31 23.8672 31 22.4806C31 21.1135 29.8672 19.9807 28.5 20.0002C27.1133 20.0002 26 21.1135 26 22.5001C26 23.8672 27.1133 25 28.5 25ZM22 22.5C22 23.8672 20.8867 25 19.5 25C18.1133 25 17 23.8672 17 22.5C17 21.1133 18.1133 20 19.5 20C20.8867 20 22 21.1133 22 22.5Z" fill="url(#paint2_linear)"/>
<path d="M37.5 25V25.2L37.4972 25.2L37.5 25ZM28.5 25L28.5028 25.2H28.5V25ZM28.5 20.0002L28.5029 20.2002H28.5V20.0002ZM40.2 22.5C40.2 23.9776 38.9776 25.2 37.5 25.2V24.8C38.7567 24.8 39.8 23.7567 39.8 22.5H40.2ZM37.5 19.8C38.9972 19.8 40.2 21.0028 40.2 22.5H39.8C39.8 21.2237 38.7763 20.2 37.5 20.2V19.8ZM34.8 22.5C34.8 21.0028 36.0028 19.8 37.5 19.8V20.2C36.2237 20.2 35.2 21.2237 35.2 22.5H34.8ZM37.4972 25.2C36.0038 25.1789 34.8 23.9792 34.8 22.5H35.2C35.2 23.7552 36.2228 24.782 37.5028 24.8L37.4972 25.2ZM31.2 22.4806C31.2 23.9782 29.9972 25.1789 28.5028 25.2L28.4972 24.8C29.7762 24.782 30.8 23.7563 30.8 22.4806H31.2ZM28.4971 19.8003C29.9776 19.7791 31.2 21.0036 31.2 22.4806H30.8C30.8 21.2234 29.7568 20.1823 28.5029 20.2002L28.4971 19.8003ZM25.8 22.5001C25.8 21.003 27.0028 19.8002 28.5 19.8002V20.2002C27.2237 20.2002 26.2 21.2239 26.2 22.5001H25.8ZM28.5 25.2C27.0018 25.2 25.8 23.9767 25.8 22.5001H26.2C26.2 23.7578 27.2247 24.8 28.5 24.8V25.2ZM19.5 24.8C20.7752 24.8 21.8 23.7578 21.8 22.5H22.2C22.2 23.9766 20.9982 25.2 19.5 25.2V24.8ZM17.2 22.5C17.2 23.7578 18.2248 24.8 19.5 24.8V25.2C18.0018 25.2 16.8 23.9766 16.8 22.5H17.2ZM19.5 20.2C18.2237 20.2 17.2 21.2238 17.2 22.5H16.8C16.8 21.0028 18.0028 19.8 19.5 19.8V20.2ZM21.8 22.5C21.8 21.2238 20.7763 20.2 19.5 20.2V19.8C20.9972 19.8 22.2 21.0028 22.2 22.5H21.8Z" fill="url(#paint3_linear)" fill-opacity="0.5" mask="url(#path-5-inside-2)"/>
</g>
</g>
<defs>
<filter id="filter0_f" x="-10.3652" y="3.84534" width="54.0273" height="53.368" filterUnits="userSpaceOnUse" color-interpolation-filters="sRGB">
<feFlood flood-opacity="0" result="BackgroundImageFix"/>
<feBlend mode="normal" in="SourceGraphic" in2="BackgroundImageFix" result="shape"/>
<feGaussianBlur stdDeviation="8.5" result="effect1_foregroundBlur"/>
</filter>
<filter id="filter1_b" x="-16.5698" y="-21.3293" width="89.57" height="88.2099" filterUnits="userSpaceOnUse" color-interpolation-filters="sRGB">
<feFlood flood-opacity="0" result="BackgroundImageFix"/>
<feGaussianBlur in="BackgroundImage" stdDeviation="12"/>
<feComposite in2="SourceAlpha" operator="in" result="effect1_backgroundBlur"/>
<feBlend mode="normal" in="SourceGraphic" in2="effect1_backgroundBlur" result="shape"/>
</filter>
<filter id="filter2_bd" x="2" y="5" width="53" height="35" filterUnits="userSpaceOnUse" color-interpolation-filters="sRGB">
<feFlood flood-opacity="0" result="BackgroundImageFix"/>
<feGaussianBlur in="BackgroundImage" stdDeviation="7.5"/>
<feComposite in2="SourceAlpha" operator="in" result="effect1_backgroundBlur"/>
<feColorMatrix in="SourceAlpha" type="matrix" values="0 0 0 0 0 0 0 0 0 0 0 0 0 0 0 0 0 0 127 0"/>
<feOffset dx="2" dy="2"/>
<feGaussianBlur stdDeviation="2.5"/>
<feColorMatrix type="matrix" values="0 0 0 0 0.845833 0 0 0 0 0.406 0 0 0 0 0 0 0 0 0.5 0"/>
<feBlend mode="normal" in2="effect1_backgroundBlur" result="effect2_dropShadow"/>
<feBlend mode="normal" in="SourceGraphic" in2="effect2_dropShadow" result="shape"/>
</filter>
<linearGradient id="paint0_linear" x1="33.3126" y1="13.0079" x2="0.345426" y2="46.8775" gradientUnits="userSpaceOnUse">
<stop stop-color="#FF9E00"/>
<stop offset="1" stop-color="#FFEB6B"/>
</linearGradient>
<linearGradient id="paint1_linear" x1="41.7011" y1="8.12216" x2="17.3305" y2="33.8427" gradientUnits="userSpaceOnUse">
<stop/>
<stop offset="1" stop-opacity="0"/>
</linearGradient>
<linearGradient id="paint2_linear" x1="18.6307" y1="20.9029" x2="43.7135" y2="24.6648" gradientUnits="userSpaceOnUse">
<stop stop-color="white"/>
<stop offset="1" stop-color="white" stop-opacity="0.4"/>
</linearGradient>
<linearGradient id="paint3_linear" x1="37.5224" y1="21.6773" x2="18.0042" y2="22.1729" gradientUnits="userSpaceOnUse">
<stop stop-color="white"/>
<stop offset="1" stop-color="white" stop-opacity="0"/>
</linearGradient>
<clipPath id="clip0">
<rect width="50" height="50" fill="white"/>
</clipPath>
</defs>
</svg>
